<?xml version="1.0" encoding="UTF-8" standalone="no"?>
<!DOCTYPE svg PUBLIC "-//W3C//DTD SVG 20010904//EN"
              "http://www.w3.org/TR/2001/REC-SVG-20010904/DTD/svg10.dtd">

<svg xmlns="http://www.w3.org/2000/svg"
     width="6.4in" height="3.6in"
     viewBox="0 0 1920 1080">
  <path id="Selection"
        fill="white" stroke="black" stroke-width="1"
        d="M 441.00,450.00
           C 433.23,462.07 425.20,455.94 415.00,450.69
             410.76,448.51 407.01,447.82 403.30,444.47
             395.21,437.18 393.79,424.02 399.85,415.00
             407.16,404.14 425.45,402.67 434.96,411.21
             443.15,418.57 444.15,430.79 438.52,440.00
             435.42,445.07 432.91,446.16 428.00,449.00
             428.00,449.00 441.00,450.00 441.00,450.00 Z
           M 764.00,449.00
           C 765.18,442.47 774.16,422.25 777.28,415.00
             778.63,411.87 780.33,405.41 784.83,406.34
             788.32,407.06 790.42,413.98 791.72,417.00
             791.72,417.00 805.00,449.00 805.00,449.00
             802.44,448.97 799.69,449.23 797.64,447.40
             794.93,445.00 794.40,439.88 791.59,438.02
             789.65,436.74 785.33,436.96 783.00,437.00
             771.58,437.21 775.53,444.38 770.36,448.01
             768.70,449.18 765.96,448.98 764.00,449.00 Z
           M 842.00,438.00
           C 845.61,440.02 855.86,446.79 858.60,439.77
             860.13,435.84 854.67,432.24 852.00,430.42
             845.91,426.27 839.71,421.26 842.89,413.00
             846.48,403.68 860.34,404.90 863.40,408.43
             865.31,410.63 864.99,414.26 865.00,417.00
             861.69,415.42 857.79,412.79 854.02,413.27
             851.44,413.60 849.06,415.10 850.17,418.03
             852.79,424.94 865.31,425.57 865.96,437.00
             866.15,440.42 866.00,444.00 863.57,446.66
             859.78,450.81 847.56,451.66 843.60,447.35
             841.55,445.13 842.00,440.86 842.00,438.00 Z
           M 634.00,407.00
           C 635.86,407.02 638.22,406.93 639.96,407.60
             644.11,409.20 650.87,418.97 653.00,423.00
             653.00,423.00 655.00,423.00 655.00,423.00
             656.66,419.33 663.70,409.10 667.30,407.57
             668.97,406.86 672.14,407.01 674.00,407.00
             674.00,407.00 674.00,449.00 674.00,449.00
             674.00,449.00 667.00,449.00 667.00,449.00
             667.00,449.00 667.00,419.00 667.00,419.00
             664.53,421.69 657.04,432.41 653.92,432.39
             650.60,432.37 643.41,421.80 641.00,419.00
             641.00,419.00 641.00,449.00 641.00,449.00
             641.00,449.00 634.00,449.00 634.00,449.00
             634.00,449.00 634.00,407.00 634.00,407.00 Z
           M 744.00,407.00
           C 744.00,407.00 750.00,407.00 750.00,407.00
             750.00,407.00 750.00,449.00 750.00,449.00
             743.61,449.00 732.97,450.46 728.22,445.77
             721.80,439.44 722.79,426.67 731.02,422.16
             734.88,420.27 739.97,420.86 744.00,422.16
             744.00,422.16 744.00,407.00 744.00,407.00 Z
           M 809.00,407.00
           C 809.00,407.00 816.00,407.00 816.00,407.00
             816.00,407.00 816.00,449.00 816.00,449.00
             816.00,449.00 809.00,449.00 809.00,449.00
             809.00,449.00 809.00,407.00 809.00,407.00 Z
           M 905.00,407.00
           C 905.00,407.00 912.00,407.00 912.00,407.00
             912.00,407.00 912.00,449.00 912.00,449.00
             912.00,449.00 905.00,449.00 905.00,449.00
             905.00,449.00 905.00,407.00 905.00,407.00 Z
           M 682.61,411.04
           C 688.13,409.14 688.41,414.26 685.70,415.35
             683.41,416.26 680.29,414.67 682.61,411.04 Z
           M 970.61,411.04
           C 976.13,409.14 976.41,414.26 973.70,415.35
             971.41,416.26 968.29,414.67 970.61,411.04 Z
           M 414.00,413.42
           C 402.74,417.41 399.94,431.04 408.21,438.47
             412.20,442.05 418.91,442.85 424.00,441.58
             434.73,438.91 438.48,425.03 430.78,417.21
             426.15,412.52 420.08,412.53 414.00,413.42 Z
           M 532.00,427.00
           C 534.40,421.92 537.92,418.40 543.00,416.00
             543.00,416.00 543.00,422.00 543.00,422.00
             543.00,422.00 551.00,422.00 551.00,422.00
             551.00,422.00 551.00,427.00 551.00,427.00
             551.00,427.00 543.00,427.00 543.00,427.00
             543.00,430.86 541.90,440.70 545.31,442.98
             547.17,444.21 550.81,443.99 553.00,444.00
             552.89,445.43 552.98,447.06 552.01,448.26
             549.24,451.68 540.22,450.02 537.85,446.77
             535.17,443.09 536.00,431.81 536.00,427.00
             536.00,427.00 532.00,427.00 532.00,427.00 Z
           M 946.00,427.00
           C 948.40,421.92 951.92,418.40 957.00,416.00
             957.00,416.00 957.00,422.00 957.00,422.00
             957.00,422.00 965.00,422.00 965.00,422.00
             965.00,422.00 965.00,427.00 965.00,427.00
             965.00,427.00 957.00,427.00 957.00,427.00
             957.00,430.86 955.90,440.70 959.31,442.98
             961.17,444.21 964.81,443.99 967.00,444.00
             966.89,445.43 966.98,447.06 966.01,448.26
             963.24,451.68 954.22,450.02 951.85,446.77
             949.17,443.09 950.00,431.81 950.00,427.00
             950.00,427.00 946.00,427.00 946.00,427.00 Z
           M 785.00,418.00
           C 785.00,418.00 783.00,418.00 783.00,418.00
             783.00,418.00 779.00,431.00 779.00,431.00
             779.00,431.00 790.00,431.00 790.00,431.00
             790.00,431.00 785.00,418.00 785.00,418.00 Z
           M 477.00,430.00
           C 477.03,427.65 476.77,424.52 478.60,422.74
             481.96,419.45 491.60,420.71 494.42,424.23
             497.87,428.54 497.00,441.34 497.00,447.00
             497.00,447.00 501.00,447.00 501.00,447.00
             500.20,448.19 500.26,448.70 498.71,449.41
             497.16,450.10 494.69,449.95 493.00,449.92
             487.30,449.80 474.33,451.98 476.47,442.00
             478.07,434.56 487.15,435.07 488.83,431.60
             489.98,429.25 487.68,426.11 482.00,428.04
             482.00,428.04 477.00,430.00 477.00,430.00 Z
           M 504.00,421.94
           C 504.00,421.94 510.58,421.94 510.58,421.94
             514.57,421.83 518.81,420.01 522.90,421.94
             530.23,424.84 528.00,442.17 528.00,449.00
             528.00,449.00 522.00,449.00 522.00,449.00
             522.00,444.15 523.46,430.58 518.77,428.07
             515.95,426.55 512.74,428.34 511.60,431.11
             510.63,433.44 511.00,445.66 511.00,449.00
             511.00,449.00 504.00,449.00 504.00,449.00
             504.00,449.00 504.00,421.94 504.00,421.94 Z
           M 586.00,422.00
           C 586.00,422.00 593.42,422.00 593.42,422.00
             601.20,421.13 602.18,419.28 609.00,425.00
             614.08,419.42 623.07,419.17 626.11,427.00
             627.52,430.62 627.00,444.32 627.00,449.00
             627.00,449.00 621.00,449.00 621.00,449.00
             621.00,444.66 621.41,435.76 619.97,432.02
             618.89,429.20 616.42,426.47 613.14,428.08
             608.50,430.37 610.00,444.26 610.00,449.00
             610.00,449.00 603.00,449.00 603.00,449.00
             603.00,444.29 605.09,427.63 598.00,427.63
             590.91,427.63 593.00,444.29 593.00,449.00
             593.00,449.00 586.00,449.00 586.00,449.00
             586.00,449.00 586.00,422.00 586.00,422.00 Z
           M 694.00,421.94
           C 694.00,421.94 700.58,421.94 700.58,421.94
             704.57,421.83 708.81,420.01 712.90,421.94
             720.23,424.84 718.00,442.17 718.00,449.00
             718.00,449.00 712.00,449.00 712.00,449.00
             712.00,444.15 713.46,430.58 708.77,428.07
             705.95,426.55 702.74,428.34 701.60,431.11
             700.63,433.44 701.00,445.66 701.00,449.00
             701.00,449.00 694.00,449.00 694.00,449.00
             694.00,449.00 694.00,421.94 694.00,421.94 Z
           M 879.00,421.65
           C 884.56,420.50 891.13,420.25 895.47,424.53
             902.72,431.67 901.25,445.79 891.00,449.30
             885.63,451.14 877.35,450.12 873.39,445.79
             867.25,439.08 868.65,426.03 879.00,421.65 Z
           M 990.00,421.65
           C 995.56,420.50 1002.13,420.25 1006.47,424.53
             1013.72,431.67 1012.25,445.79 1002.00,449.30
             996.63,451.14 988.35,450.12 984.39,445.79
             978.25,439.08 979.65,426.03 990.00,421.65 Z
           M 1016.00,421.94
           C 1016.00,421.94 1022.58,421.94 1022.58,421.94
             1026.57,421.83 1030.81,420.01 1034.90,421.94
             1042.23,424.84 1040.00,442.17 1040.00,449.00
             1040.00,449.00 1034.00,449.00 1034.00,449.00
             1034.00,444.15 1035.46,430.58 1030.77,428.07
             1027.95,426.55 1024.74,428.34 1023.60,431.11
             1022.63,433.44 1023.00,445.66 1023.00,449.00
             1023.00,449.00 1016.00,449.00 1016.00,449.00
             1016.00,449.00 1016.00,421.94 1016.00,421.94 Z
           M 1059.00,441.00
           C 1056.21,439.64 1053.49,438.18 1051.04,436.24
             1049.79,435.25 1048.63,434.25 1047.74,432.91
             1040.90,422.66 1057.28,417.73 1062.40,422.74
             1064.08,424.38 1063.92,426.84 1064.00,429.00
             1064.00,429.00 1053.00,427.00 1053.00,427.00
             1056.86,434.71 1065.15,434.52 1065.33,442.00
             1065.59,452.71 1049.95,450.57 1047.60,448.26
             1045.92,446.62 1046.08,444.16 1046.00,442.00
             1052.28,443.12 1052.41,444.54 1059.00,443.00
             1059.00,443.00 1059.00,441.00 1059.00,441.00 Z
           M 447.00,422.00
           C 447.00,422.00 454.00,422.00 454.00,422.00
             454.00,426.42 452.48,441.70 457.23,443.34
             460.33,444.42 463.36,441.69 464.40,438.98
             465.36,436.49 465.00,425.37 465.00,422.00
             465.00,422.00 471.00,422.00 471.00,422.00
             471.00,422.00 471.00,449.00 471.00,449.00
             471.00,449.00 464.00,447.00 464.00,447.00
             458.86,451.73 450.71,451.13 448.03,444.00
             446.47,439.84 447.00,427.08 447.00,422.00 Z
           M 555.00,422.00
           C 555.00,422.00 562.00,422.00 562.00,422.00
             562.00,426.42 560.48,441.70 565.23,443.34
             568.33,444.42 571.36,441.69 572.40,438.98
             573.36,436.49 573.00,425.37 573.00,422.00
             573.00,422.00 579.00,422.00 579.00,422.00
             579.00,422.00 579.00,449.00 579.00,449.00
             579.00,449.00 572.00,447.00 572.00,447.00
             566.86,451.73 558.71,451.13 556.03,444.00
             554.47,439.84 555.00,427.08 555.00,422.00 Z
           M 681.00,422.00
           C 681.00,422.00 688.00,422.00 688.00,422.00
             688.00,422.00 688.00,449.00 688.00,449.00
             688.00,449.00 681.00,449.00 681.00,449.00
             681.00,449.00 681.00,422.00 681.00,422.00 Z
           M 918.00,422.00
           C 918.00,422.00 925.00,422.00 925.00,422.00
             925.00,426.42 923.48,441.70 928.23,443.34
             931.33,444.42 934.36,441.69 935.40,438.98
             936.36,436.49 936.00,425.37 936.00,422.00
             936.00,422.00 942.00,422.00 942.00,422.00
             942.00,422.00 942.00,449.00 942.00,449.00
             942.00,449.00 935.00,447.00 935.00,447.00
             929.86,451.73 921.71,451.13 919.03,444.00
             917.47,439.84 918.00,427.08 918.00,422.00 Z
           M 969.00,422.00
           C 969.00,422.00 976.00,422.00 976.00,422.00
             976.00,422.00 976.00,449.00 976.00,449.00
             976.00,449.00 969.00,449.00 969.00,449.00
             969.00,449.00 969.00,422.00 969.00,422.00 Z
           M 744.00,444.00
           C 744.00,441.00 744.56,430.60 742.98,428.60
             741.09,426.22 736.28,427.00 734.19,428.60
             730.16,431.58 729.86,439.20 734.19,441.99
             736.35,443.35 741.43,443.79 744.00,444.00 Z
           M 882.04,427.43
           C 871.97,431.84 876.32,446.25 887.00,443.68
             893.37,442.15 894.81,433.69 890.57,429.31
             888.06,426.72 885.27,426.97 882.04,427.43 Z
           M 993.04,427.43
           C 982.97,431.84 987.32,446.25 998.00,443.68
             1004.37,442.15 1005.81,433.69 1001.57,429.31
             999.06,426.72 996.27,426.97 993.04,427.43 Z
           M 822.00,433.00
           C 822.00,433.00 838.00,433.00 838.00,433.00
             838.00,433.00 838.00,439.00 838.00,439.00
             838.00,439.00 822.00,439.00 822.00,439.00
             822.00,439.00 822.00,433.00 822.00,433.00 Z
           M 489.84,437.00
           C 488.68,437.54 487.31,437.98 486.15,438.84
             479.42,443.83 487.90,448.88 489.84,442.85
             490.06,441.59 489.99,438.43 489.84,437.00 Z" />
</svg>
