<?xml version="1.0" encoding="UTF-8" standalone="no"?>
<!DOCTYPE svg PUBLIC "-//W3C//DTD SVG 20010904//EN"
              "http://www.w3.org/TR/2001/REC-SVG-20010904/DTD/svg10.dtd">

<svg xmlns="http://www.w3.org/2000/svg"
     width="250" height="30"
     viewBox="0 0 32450 3422">
  <path id="Selection #4"
        fill="white" stroke="black" stroke-width="1"
        d="M 2252.00,2868.00
           C 2249.38,2872.81 2234.79,2886.21 2230.00,2891.00
             2230.00,2891.00 2212.00,2908.04 2212.00,2908.04
             2212.00,2908.04 2180.00,2939.09 2180.00,2939.09
             2180.00,2939.09 2156.00,2963.00 2156.00,2963.00
             2156.00,2963.00 2145.00,2973.04 2145.00,2973.04
             2145.00,2973.04 2121.00,2996.96 2121.00,2996.96
             2121.00,2996.96 2112.00,3005.04 2112.00,3005.04
             2112.00,3005.04 2055.00,3060.99 2055.00,3060.99
             2055.00,3060.99 2037.00,3078.00 2037.00,3078.00
             2037.00,3078.00 2010.00,3104.01 2010.00,3104.01
             2010.00,3104.01 1981.00,3132.28 1981.00,3132.28
             1976.38,3136.36 1966.09,3148.42 1961.00,3149.69
             1956.79,3150.74 1950.34,3149.23 1946.00,3149.04
             1946.00,3149.04 1910.00,3146.17 1910.00,3146.17
             1871.10,3142.28 1832.37,3136.83 1794.00,3129.20
             1640.20,3098.63 1491.17,3045.33 1351.00,2975.25
             1258.41,2928.95 1170.94,2873.31 1084.00,2817.31
             1084.00,2817.31 1011.00,2768.66 1011.00,2768.66
             1011.00,2768.66 974.00,2743.55 974.00,2743.55
             974.00,2743.55 935.00,2735.00 935.00,2735.00
             935.00,2735.00 864.00,2717.29 864.00,2717.29
             793.39,2697.22 724.58,2669.62 660.00,2634.69
             542.16,2570.97 441.36,2484.44 356.58,2381.00
             306.34,2319.71 261.82,2252.40 227.26,2181.00
             199.95,2124.57 178.05,2065.64 162.12,2005.00
             149.86,1958.37 140.96,1910.94 135.84,1863.00
             135.84,1863.00 131.91,1819.00 131.91,1819.00
             131.91,1819.00 131.00,1809.00 131.00,1809.00
             131.00,1809.00 130.00,1779.00 130.00,1779.00
             130.00,1779.00 129.00,1762.00 129.00,1762.00
             129.00,1762.00 129.00,1720.00 129.00,1720.00
             129.00,1720.00 129.96,1708.00 129.96,1708.00
             129.96,1708.00 129.96,1691.00 129.96,1691.00
             129.96,1691.00 130.98,1679.00 130.98,1679.00
             130.98,1679.00 130.98,1669.00 130.98,1669.00
             130.98,1669.00 131.91,1661.00 131.91,1661.00
             131.91,1661.00 133.17,1639.00 133.17,1639.00
             133.17,1639.00 137.84,1595.00 137.84,1595.00
             150.26,1478.90 185.63,1364.25 237.75,1260.00
             279.24,1177.02 334.82,1101.72 397.91,1034.00
             480.36,945.49 578.74,870.89 687.00,816.75
             687.00,816.75 712.00,804.31 712.00,804.31
             811.36,758.68 907.86,730.20 1016.00,714.27
             1072.78,705.91 1130.66,701.09 1188.00,701.00
             1188.00,701.00 1205.00,700.00 1205.00,700.00
             1205.00,700.00 1222.00,700.00 1222.00,700.00
             1222.00,700.00 1237.00,701.00 1237.00,701.00
             1237.00,701.00 1261.00,701.00 1261.00,701.00
             1261.00,701.00 1276.00,702.00 1276.00,702.00
             1276.00,702.00 1301.00,703.00 1301.00,703.00
             1301.00,703.00 1311.00,703.91 1311.00,703.91
             1342.47,706.06 1373.73,709.22 1405.00,713.73
             1517.93,730.01 1614.31,758.69 1718.00,806.31
             1718.00,806.31 1762.00,828.69 1762.00,828.69
             1852.62,877.71 1934.12,938.12 2007.00,1011.00
             2038.60,1042.60 2068.97,1075.42 2096.12,1111.00
             2154.91,1188.07 2195.37,1258.86 2230.80,1349.00
             2257.65,1417.33 2279.43,1504.05 2288.15,1577.00
             2288.15,1577.00 2295.04,1648.00 2295.04,1648.00
             2295.04,1648.00 2296.00,1659.00 2296.00,1659.00
             2296.00,1659.00 2297.00,1676.00 2297.00,1676.00
             2297.00,1676.00 2297.00,1688.00 2297.00,1688.00
             2297.00,1688.00 2298.00,1703.00 2298.00,1703.00
             2299.00,1788.76 2293.03,1875.01 2274.58,1959.00
             2246.30,2087.72 2196.89,2202.39 2122.02,2311.00
             2102.46,2339.39 2080.51,2368.91 2058.00,2395.00
             2058.00,2395.00 2010.04,2448.00 2010.04,2448.00
             2010.04,2448.00 1990.00,2468.96 1990.00,2468.96
             1890.88,2563.77 1789.04,2631.69 1662.00,2683.40
             1619.05,2700.88 1574.73,2714.75 1530.00,2726.85
             1530.00,2726.85 1486.00,2737.35 1486.00,2737.35
             1478.79,2738.98 1470.68,2739.85 1464.00,2743.00
             1464.00,2743.00 1512.00,2760.58 1512.00,2760.58
             1512.00,2760.58 1614.00,2798.95 1614.00,2798.95
             1695.71,2828.83 1780.59,2857.27 1865.00,2878.37
             1902.02,2887.63 1939.21,2895.82 1977.00,2901.27
             1977.00,2901.27 2024.00,2906.09 2024.00,2906.09
             2024.00,2906.09 2036.00,2907.00 2036.00,2907.00
             2036.00,2907.00 2065.00,2907.00 2065.00,2907.00
             2065.00,2907.00 2075.00,2906.09 2075.00,2906.09
             2117.86,2903.16 2159.60,2895.09 2201.00,2883.58
             2201.00,2883.58 2229.00,2875.33 2229.00,2875.33
             2229.00,2875.33 2252.00,2868.00 2252.00,2868.00 Z
           M 21611.00,2216.00
           C 21615.43,2218.51 21618.24,2223.11 21621.42,2227.00
             21621.42,2227.00 21636.42,2245.00 21636.42,2245.00
             21636.42,2245.00 21680.96,2294.00 21680.96,2294.00
             21680.96,2294.00 21690.01,2304.00 21690.01,2304.00
             21690.01,2304.00 21705.00,2318.04 21705.00,2318.04
             21705.00,2318.04 21717.00,2329.91 21717.00,2329.91
             21747.77,2358.58 21781.02,2384.68 21816.00,2408.00
             21835.35,2420.90 21872.14,2442.99 21893.00,2452.00
             21893.00,2452.00 21915.00,2462.14 21915.00,2462.14
             21915.00,2462.14 21963.00,2480.65 21963.00,2480.65
             21997.15,2492.03 22032.36,2500.17 22068.00,2505.13
             22068.00,2505.13 22105.00,2509.09 22105.00,2509.09
             22105.00,2509.09 22115.00,2510.00 22115.00,2510.00
             22115.00,2510.00 22135.00,2511.00 22135.00,2511.00
             22135.00,2511.00 22165.00,2511.00 22165.00,2511.00
             22165.00,2511.00 22177.00,2510.09 22177.00,2510.09
             22177.00,2510.09 22213.00,2506.73 22213.00,2506.73
             22281.79,2496.60 22344.48,2468.52 22394.00,2419.00
             22416.50,2396.50 22434.22,2373.41 22446.85,2344.00
             22459.11,2315.46 22463.98,2291.79 22466.09,2261.00
             22466.09,2261.00 22467.00,2251.00 22467.00,2251.00
             22467.00,2251.00 22467.00,2244.00 22467.00,2244.00
             22467.00,2244.00 22466.09,2232.00 22466.09,2232.00
             22464.99,2216.03 22463.00,2200.59 22459.11,2185.00
             22436.03,2092.68 22363.93,2017.33 22291.00,1960.42
             22291.00,1960.42 22241.00,1924.02 22241.00,1924.02
             22241.00,1924.02 22186.00,1889.19 22186.00,1889.19
             22186.00,1889.19 22061.00,1813.42 22061.00,1813.42
             22061.00,1813.42 21925.00,1729.66 21925.00,1729.66
             21871.08,1694.45 21819.13,1654.98 21772.00,1611.09
             21716.46,1559.36 21670.39,1502.25 21640.42,1432.00
             21629.79,1407.09 21621.33,1381.42 21615.35,1355.00
             21609.38,1328.61 21605.76,1302.94 21603.91,1276.00
             21603.91,1276.00 21603.00,1266.00 21603.00,1266.00
             21603.00,1266.00 21603.00,1210.00 21603.00,1210.00
             21603.00,1210.00 21603.96,1197.00 21603.96,1197.00
             21605.92,1152.04 21614.64,1105.88 21628.34,1063.00
             21679.66,902.44 21817.61,781.72 21977.00,733.72
             22039.69,714.84 22105.63,704.76 22171.00,704.00
             22171.00,704.00 22186.00,703.00 22186.00,703.00
             22186.00,703.00 22237.00,704.00 22237.00,704.00
             22237.00,704.00 22248.00,704.96 22248.00,704.96
             22248.00,704.96 22310.00,710.72 22310.00,710.72
             22401.52,722.66 22485.54,749.52 22568.00,790.75
             22591.85,802.68 22615.62,815.81 22638.00,830.34
             22642.27,833.11 22656.74,841.23 22658.40,845.18
             22659.12,846.91 22659.00,850.09 22659.00,852.00
             22659.00,852.00 22659.00,1172.00 22659.00,1172.00
             22653.35,1169.33 22650.49,1165.27 22646.00,1161.09
             22646.00,1161.09 22624.00,1141.28 22624.00,1141.28
             22599.78,1120.09 22574.38,1100.15 22548.00,1081.72
             22470.28,1027.41 22385.49,989.44 22292.00,972.58
             22270.37,968.67 22248.88,966.41 22227.00,964.91
             22227.00,964.91 22215.00,964.00 22215.00,964.00
             22215.00,964.00 22167.00,964.00 22167.00,964.00
             22167.00,964.00 22119.00,968.28 22119.00,968.28
             22020.67,981.53 21910.40,1035.61 21877.67,1136.00
             21868.87,1163.00 21868.96,1181.38 21869.00,1209.00
             21869.02,1220.04 21871.88,1237.08 21874.35,1248.00
             21884.75,1293.95 21907.28,1333.46 21937.87,1369.00
             22005.14,1447.15 22096.40,1499.66 22184.00,1551.60
             22184.00,1551.60 22329.00,1636.99 22329.00,1636.99
             22376.79,1665.06 22420.16,1690.83 22465.00,1723.88
             22556.79,1791.55 22634.02,1873.94 22684.26,1977.00
             22699.83,2008.95 22712.25,2042.50 22720.87,2077.00
             22729.30,2110.70 22735.52,2145.27 22737.04,2180.00
             22737.04,2180.00 22738.00,2191.00 22738.00,2191.00
             22738.00,2191.00 22738.00,2206.00 22738.00,2206.00
             22738.00,2206.00 22738.99,2220.00 22738.99,2220.00
             22738.99,2220.00 22738.00,2233.00 22738.00,2233.00
             22738.00,2233.00 22738.00,2250.00 22738.00,2250.00
             22738.00,2250.00 22737.00,2262.00 22737.00,2262.00
             22737.00,2262.00 22737.00,2271.00 22737.00,2271.00
             22737.00,2271.00 22733.28,2305.00 22733.28,2305.00
             22727.19,2351.70 22715.83,2398.49 22697.58,2442.00
             22651.90,2550.85 22568.52,2638.71 22465.00,2694.69
             22401.75,2728.90 22328.31,2750.63 22257.00,2759.15
             22257.00,2759.15 22202.00,2764.04 22202.00,2764.04
             22202.00,2764.04 22191.00,2765.00 22191.00,2765.00
             22191.00,2765.00 22168.00,2765.00 22168.00,2765.00
             22168.00,2765.00 22155.00,2765.97 22155.00,2765.97
             22155.00,2765.97 22141.00,2765.00 22141.00,2765.00
             22141.00,2765.00 22119.00,2765.00 22119.00,2765.00
             22119.00,2765.00 22099.00,2764.00 22099.00,2764.00
             22099.00,2764.00 22089.00,2763.09 22089.00,2763.09
             22089.00,2763.09 22038.00,2758.28 22038.00,2758.28
             21998.95,2753.19 21961.11,2746.13 21923.00,2736.12
             21869.24,2721.99 21817.20,2701.94 21767.00,2678.22
             21767.00,2678.22 21736.00,2662.25 21736.00,2662.25
             21702.73,2645.46 21670.78,2624.60 21640.00,2603.66
             21640.00,2603.66 21620.00,2589.37 21620.00,2589.37
             21617.93,2587.82 21613.24,2584.72 21612.02,2582.68
             21610.78,2580.60 21611.00,2577.37 21611.00,2575.00
             21611.00,2575.00 21611.00,2216.00 21611.00,2216.00 Z
           M 17822.00,2742.00
           C 17822.00,2742.00 17846.15,2684.00 17846.15,2684.00
             17846.15,2684.00 17890.15,2581.00 17890.15,2581.00
             17890.15,2581.00 17990.42,2346.00 17990.42,2346.00
             17990.42,2346.00 18028.58,2257.00 18028.58,2257.00
             18028.58,2257.00 18186.15,1888.00 18186.15,1888.00
             18186.15,1888.00 18487.58,1182.00 18487.58,1182.00
             18487.58,1182.00 18639.15,827.00 18639.15,827.00
             18639.15,827.00 18674.58,744.00 18674.58,744.00
             18674.58,744.00 18681.85,727.00 18681.85,727.00
             18681.85,727.00 18686.41,719.02 18686.41,719.02
             18686.41,719.02 18694.00,718.00 18694.00,718.00
             18694.00,718.00 18817.00,718.00 18817.00,718.00
             18817.00,718.00 18884.00,718.00 18884.00,718.00
             18884.00,718.00 18889.61,719.02 18889.61,719.02
             18889.61,719.02 18894.42,727.00 18894.42,727.00
             18894.42,727.00 18902.00,744.00 18902.00,744.00
             18902.00,744.00 18939.77,829.00 18939.77,829.00
             18939.77,829.00 18982.86,926.00 18982.86,926.00
             18982.86,926.00 19100.30,1190.00 19100.30,1190.00
             19100.30,1190.00 19248.86,1524.00 19248.86,1524.00
             19248.86,1524.00 19567.86,2241.00 19567.86,2241.00
             19567.86,2241.00 19651.14,2428.00 19651.14,2428.00
             19651.14,2428.00 19717.30,2577.00 19717.30,2577.00
             19717.30,2577.00 19765.86,2686.00 19765.86,2686.00
             19765.86,2686.00 19781.86,2722.00 19781.86,2722.00
             19781.86,2722.00 19790.00,2742.00 19790.00,2742.00
             19790.00,2742.00 19502.00,2742.00 19502.00,2742.00
             19502.00,2742.00 19494.39,2740.98 19494.39,2740.98
             19494.39,2740.98 19489.70,2733.00 19489.70,2733.00
             19489.70,2733.00 19480.23,2712.00 19480.23,2712.00
             19480.23,2712.00 19436.70,2615.00 19436.70,2615.00
             19436.70,2615.00 19319.31,2354.00 19319.31,2354.00
             19319.31,2354.00 19275.31,2256.00 19275.31,2256.00
             19275.31,2256.00 19237.69,2172.00 19237.69,2172.00
             19237.69,2172.00 19230.00,2155.00 19230.00,2155.00
             19230.00,2155.00 19224.79,2147.02 19224.79,2147.02
             19224.79,2147.02 19217.00,2146.00 19217.00,2146.00
             19217.00,2146.00 18798.00,2146.00 18798.00,2146.00
             18798.00,2146.00 18380.00,2146.00 18380.00,2146.00
             18380.00,2146.00 18372.41,2147.02 18372.41,2147.02
             18372.41,2147.02 18367.58,2156.00 18367.58,2156.00
             18367.58,2156.00 18359.00,2176.00 18359.00,2176.00
             18359.00,2176.00 18317.40,2274.00 18317.40,2274.00
             18317.40,2274.00 18265.42,2396.00 18265.42,2396.00
             18265.42,2396.00 18165.15,2632.00 18165.15,2632.00
             18165.15,2632.00 18129.42,2716.00 18129.42,2716.00
             18129.42,2716.00 18122.20,2733.00 18122.20,2733.00
             18122.20,2733.00 18117.61,2740.98 18117.61,2740.98
             18117.61,2740.98 18110.00,2742.00 18110.00,2742.00
             18110.00,2742.00 17822.00,2742.00 17822.00,2742.00 Z
           M 11585.00,729.00
           C 11585.00,729.00 11849.00,729.00 11849.00,729.00
             11849.00,729.00 11855.71,729.57 11855.71,729.57
             11855.71,729.57 11867.80,743.00 11867.80,743.00
             11867.80,743.00 11897.00,779.00 11897.00,779.00
             11897.00,779.00 12021.80,933.00 12021.80,933.00
             12021.80,933.00 12340.20,1326.00 12340.20,1326.00
             12340.20,1326.00 12466.58,1482.00 12466.58,1482.00
             12466.58,1482.00 12503.00,1527.00 12503.00,1527.00
             12503.00,1527.00 12526.00,1555.00 12526.00,1555.00
             12526.00,1555.00 12581.39,1486.00 12581.39,1486.00
             12581.39,1486.00 12679.00,1365.00 12679.00,1365.00
             12679.00,1365.00 13030.60,929.00 13030.60,929.00
             13030.60,929.00 13153.20,777.00 13153.20,777.00
             13153.20,777.00 13180.60,743.00 13180.60,743.00
             13180.60,743.00 13193.09,729.60 13193.09,729.60
             13193.09,729.60 13200.00,729.00 13200.00,729.00
             13200.00,729.00 13461.00,729.00 13461.00,729.00
             13461.00,729.00 13461.00,2742.00 13461.00,2742.00
             13461.00,2742.00 13170.00,2742.00 13170.00,2742.00
             13170.00,2742.00 13170.00,1661.00 13170.00,1661.00
             13170.00,1661.00 13170.00,1330.00 13170.00,1330.00
             13170.00,1330.00 13170.00,1228.00 13170.00,1228.00
             13170.00,1228.00 13170.00,1197.00 13170.00,1197.00
             13170.00,1197.00 13169.00,1179.00 13169.00,1179.00
             13165.59,1185.46 13157.97,1193.95 13153.21,1200.00
             13153.21,1200.00 13121.40,1240.00 13121.40,1240.00
             13121.40,1240.00 13023.42,1363.00 13023.42,1363.00
             13023.42,1363.00 12896.00,1523.00 12896.00,1523.00
             12896.00,1523.00 12698.60,1771.00 12698.60,1771.00
             12698.60,1771.00 12588.00,1910.00 12588.00,1910.00
             12588.00,1910.00 12561.60,1943.00 12561.60,1943.00
             12556.64,1949.20 12554.47,1954.84 12546.00,1955.00
             12546.00,1955.00 12506.00,1955.00 12506.00,1955.00
             12494.84,1954.98 12494.23,1950.54 12487.40,1942.00
             12487.40,1942.00 12461.60,1910.00 12461.60,1910.00
             12461.60,1910.00 12346.80,1767.00 12346.80,1767.00
             12346.80,1767.00 12034.80,1379.00 12034.80,1379.00
             12034.80,1379.00 11932.00,1251.00 11932.00,1251.00
             11932.00,1251.00 11897.40,1208.00 11897.40,1208.00
             11897.40,1208.00 11874.00,1179.00 11874.00,1179.00
             11874.00,1179.00 11874.00,2742.00 11874.00,2742.00
             11874.00,2742.00 11585.00,2742.00 11585.00,2742.00
             11585.00,2742.00 11585.00,729.00 11585.00,729.00 Z
           M 16864.00,729.00
           C 16864.00,729.00 17128.00,729.00 17128.00,729.00
             17128.00,729.00 17128.00,2742.00 17128.00,2742.00
             17128.00,2742.00 16715.00,2742.00 16715.00,2742.00
             16715.00,2742.00 16534.00,2742.00 16534.00,2742.00
             16534.00,2742.00 16514.00,2741.00 16514.00,2741.00
             16514.00,2741.00 16504.00,2740.09 16504.00,2740.09
             16504.00,2740.09 16449.00,2734.27 16449.00,2734.27
             16357.06,2721.02 16270.22,2690.48 16193.00,2638.26
             16158.01,2614.59 16126.20,2586.49 16097.04,2556.00
             15999.69,2454.22 15944.68,2313.80 15929.84,2175.00
             15926.84,2146.95 15924.33,2119.21 15924.00,2091.00
             15924.00,2091.00 15923.00,2076.00 15923.00,2076.00
             15923.00,2076.00 15923.00,2042.00 15923.00,2042.00
             15923.00,2042.00 15923.96,2030.00 15923.96,2030.00
             15923.96,2030.00 15923.96,2015.00 15923.96,2015.00
             15923.96,2015.00 15924.91,2005.00 15924.91,2005.00
             15924.91,2005.00 15926.83,1978.00 15926.83,1978.00
             15931.77,1927.00 15940.79,1877.02 15956.02,1828.00
             16005.02,1670.38 16114.98,1538.73 16260.00,1460.31
             16323.30,1426.07 16403.57,1402.39 16475.00,1393.85
             16475.00,1393.85 16515.00,1389.91 16515.00,1389.91
             16515.00,1389.91 16525.00,1389.00 16525.00,1389.00
             16525.00,1389.00 16544.00,1388.00 16544.00,1388.00
             16544.00,1388.00 16604.00,1388.00 16604.00,1388.00
             16604.00,1388.00 16616.00,1388.91 16616.00,1388.91
             16645.56,1390.93 16674.78,1394.15 16704.00,1399.42
             16738.75,1405.69 16774.19,1414.54 16808.00,1424.72
             16808.00,1424.72 16864.00,1443.00 16864.00,1443.00
             16864.00,1443.00 16864.00,729.00 16864.00,729.00 Z
           M 20014.00,729.00
           C 20014.00,729.00 20303.00,729.00 20303.00,729.00
             20303.00,729.00 20303.00,2742.00 20303.00,2742.00
             20303.00,2742.00 20014.00,2742.00 20014.00,2742.00
             20014.00,2742.00 20014.00,729.00 20014.00,729.00 Z
           M 24652.00,729.00
           C 24652.00,729.00 24915.00,729.00 24915.00,729.00
             24915.00,729.00 24915.00,2742.00 24915.00,2742.00
             24915.00,2742.00 24652.00,2742.00 24652.00,2742.00
             24652.00,2742.00 24652.00,729.00 24652.00,729.00 Z
           M 13979.00,859.21
           C 13979.00,859.21 14000.00,859.21 14000.00,859.21
             14019.97,859.03 14040.74,864.31 14059.00,872.15
             14074.87,878.97 14089.36,889.07 14101.96,900.84
             14115.27,913.26 14127.02,927.65 14135.19,944.00
             14158.54,990.69 14155.53,1050.78 14127.94,1095.00
             14111.68,1121.05 14087.37,1141.78 14060.00,1155.24
             14042.16,1164.02 14021.84,1168.77 14002.00,1169.00
             14002.00,1169.00 13993.00,1169.66 13993.00,1169.66
             13993.00,1169.66 13986.00,1169.04 13986.00,1169.04
             13966.31,1168.19 13951.04,1164.97 13933.00,1156.69
             13916.05,1148.91 13900.15,1137.15 13887.00,1124.00
             13872.60,1109.60 13860.48,1092.69 13852.28,1074.00
             13843.15,1053.18 13839.96,1032.58 13840.00,1010.00
             13840.08,959.39 13870.72,911.36 13912.00,883.67
             13935.35,868.01 13951.77,863.37 13979.00,859.21 Z
           M 27872.00,859.21
           C 27872.00,859.21 27893.00,859.21 27893.00,859.21
             27912.97,859.03 27933.74,864.31 27952.00,872.15
             27967.87,878.97 27982.36,889.07 27994.96,900.84
             28008.27,913.26 28020.02,927.65 28028.19,944.00
             28051.54,990.69 28048.53,1050.78 28020.94,1095.00
             28004.68,1121.05 27980.37,1141.78 27953.00,1155.24
             27935.16,1164.02 27914.84,1168.77 27895.00,1169.00
             27895.00,1169.00 27886.00,1169.66 27886.00,1169.66
             27886.00,1169.66 27879.00,1169.04 27879.00,1169.04
             27859.31,1168.19 27844.04,1164.97 27826.00,1156.69
             27809.05,1148.91 27793.15,1137.15 27780.00,1124.00
             27765.60,1109.60 27753.48,1092.69 27745.28,1074.00
             27736.15,1053.18 27732.96,1032.58 27733.00,1010.00
             27733.08,959.39 27763.72,911.36 27805.00,883.67
             27828.35,868.01 27844.77,863.37 27872.00,859.21 Z
           M 1186.00,975.09
           C 1179.47,976.22 1174.50,975.99 1168.00,976.00
             1168.00,976.00 1155.00,976.96 1155.00,976.96
             1155.00,976.96 1111.00,980.17 1111.00,980.17
             1067.34,984.40 1018.26,993.68 976.00,1005.42
             841.75,1042.75 724.95,1113.99 629.91,1216.00
             586.34,1262.77 548.75,1313.72 518.31,1370.00
             479.91,1440.99 454.92,1518.55 441.59,1598.00
             436.23,1629.95 431.37,1668.77 431.00,1701.00
             431.00,1701.00 430.00,1716.00 430.00,1716.00
             430.00,1716.00 430.00,1775.00 430.00,1775.00
             430.00,1775.00 431.00,1794.00 431.00,1794.00
             431.00,1794.00 431.91,1805.00 431.91,1805.00
             431.91,1805.00 436.72,1856.00 436.72,1856.00
             448.05,1942.90 473.53,2027.75 515.31,2105.00
             584.09,2232.18 694.05,2339.04 821.00,2407.69
             858.97,2428.23 899.09,2444.70 940.00,2458.33
             988.62,2474.54 1042.11,2486.07 1093.00,2492.15
             1093.00,2492.15 1145.00,2497.09 1145.00,2497.09
             1145.00,2497.09 1155.00,2498.00 1155.00,2498.00
             1155.00,2498.00 1176.00,2499.00 1176.00,2499.00
             1176.00,2499.00 1222.00,2499.00 1222.00,2499.00
             1222.00,2499.00 1249.00,2499.00 1249.00,2499.00
             1249.00,2499.00 1269.00,2498.00 1269.00,2498.00
             1269.00,2498.00 1279.00,2497.09 1279.00,2497.09
             1279.00,2497.09 1313.00,2494.16 1313.00,2494.16
             1351.40,2490.06 1389.52,2483.48 1427.00,2474.11
             1552.33,2442.77 1666.58,2378.88 1761.00,2290.91
             1761.00,2290.91 1783.00,2269.00 1783.00,2269.00
             1783.00,2269.00 1802.91,2249.00 1802.91,2249.00
             1855.26,2192.81 1900.59,2127.91 1932.69,2058.00
             1966.20,1985.04 1986.63,1909.79 1995.16,1830.00
             1995.16,1830.00 1999.00,1781.00 1999.00,1781.00
             1999.00,1781.00 2000.00,1764.00 2000.00,1764.00
             2000.00,1764.00 2000.00,1708.00 2000.00,1708.00
             2000.00,1708.00 1999.00,1686.00 1999.00,1686.00
             1999.00,1686.00 1998.09,1676.00 1998.09,1676.00
             1996.23,1648.82 1993.54,1621.93 1989.08,1595.00
             1977.85,1527.20 1958.24,1460.94 1928.26,1399.00
             1928.26,1399.00 1921.74,1385.00 1921.74,1385.00
             1847.10,1240.26 1725.47,1123.15 1579.00,1052.26
             1514.94,1021.25 1441.15,999.44 1371.00,987.75
             1343.13,983.11 1315.15,979.85 1287.00,977.91
             1287.00,977.91 1277.00,977.00 1277.00,977.00
             1277.00,977.00 1258.00,975.96 1258.00,975.96
             1258.00,975.96 1244.00,975.96 1244.00,975.96
             1244.00,975.96 1232.00,975.09 1232.00,975.09
             1232.00,975.09 1204.00,975.09 1204.00,975.09
             1204.00,975.09 1186.00,975.09 1186.00,975.09 Z
           M 6638.00,1654.00
           C 6638.00,1654.00 6638.00,1634.00 6638.00,1634.00
             6638.00,1634.00 6639.02,1626.00 6639.02,1626.00
             6639.02,1626.00 6647.00,1617.00 6647.00,1617.00
             6647.00,1617.00 6664.00,1600.00 6664.00,1600.00
             6664.00,1600.00 6688.00,1576.99 6688.00,1576.99
             6688.00,1576.99 6734.00,1531.01 6734.00,1531.01
             6734.00,1531.01 6747.00,1519.00 6747.00,1519.00
             6747.00,1519.00 6791.00,1475.01 6791.00,1475.01
             6791.00,1475.01 6803.00,1464.00 6803.00,1464.00
             6803.00,1464.00 6848.00,1419.01 6848.00,1419.01
             6848.00,1419.01 6859.00,1408.99 6859.00,1408.99
             6859.00,1408.99 6905.00,1363.01 6905.00,1363.01
             6905.00,1363.01 6916.00,1352.99 6916.00,1352.99
             6916.00,1352.99 6962.00,1307.01 6962.00,1307.01
             6962.00,1307.01 6974.00,1296.00 6974.00,1296.00
             6974.00,1296.00 7028.00,1242.91 7028.00,1242.91
             7028.00,1242.91 7070.00,1201.00 7070.00,1201.00
             7070.00,1201.00 7098.00,1174.00 7098.00,1174.00
             7098.00,1174.00 7118.00,1154.00 7118.00,1154.00
             7118.00,1154.00 7131.00,1143.00 7131.00,1143.00
             7131.00,1143.00 7131.00,1416.00 7131.00,1416.00
             7131.00,1416.00 7550.00,1416.00 7550.00,1416.00
             7550.00,1416.00 7550.00,1654.00 7550.00,1654.00
             7550.00,1654.00 7131.00,1654.00 7131.00,1654.00
             7131.00,1654.00 7131.00,2093.00 7131.00,2093.00
             7131.00,2093.00 7131.00,2313.00 7131.00,2313.00
             7131.00,2313.00 7132.00,2332.00 7132.00,2332.00
             7132.00,2332.00 7136.59,2372.00 7136.59,2372.00
             7144.92,2421.65 7164.44,2469.05 7207.00,2498.96
             7218.69,2507.18 7231.56,2513.52 7245.00,2518.31
             7269.26,2526.94 7300.32,2530.30 7326.00,2530.00
             7326.00,2530.00 7344.00,2529.00 7344.00,2529.00
             7344.00,2529.00 7354.00,2528.09 7354.00,2528.09
             7354.00,2528.09 7402.00,2521.61 7402.00,2521.61
             7456.24,2511.46 7499.20,2494.56 7549.00,2471.69
             7549.00,2471.69 7594.00,2447.85 7594.00,2447.85
             7600.06,2444.39 7612.06,2436.73 7618.00,2435.00
             7618.00,2435.00 7618.00,2673.00 7618.00,2673.00
             7618.00,2675.19 7618.25,2678.54 7617.01,2680.39
             7615.30,2682.94 7607.93,2686.23 7605.00,2687.78
             7605.00,2687.78 7578.00,2701.42 7578.00,2701.42
             7578.00,2701.42 7543.00,2716.99 7543.00,2716.99
             7510.02,2730.60 7475.74,2740.89 7441.00,2748.88
             7405.30,2757.09 7368.56,2762.45 7332.00,2764.04
             7332.00,2764.04 7319.00,2765.00 7319.00,2765.00
             7319.00,2765.00 7302.00,2765.00 7302.00,2765.00
             7302.00,2765.00 7287.00,2765.96 7287.00,2765.96
             7287.00,2765.96 7274.00,2765.00 7274.00,2765.00
             7216.19,2764.91 7157.77,2754.06 7104.00,2732.55
             7061.50,2715.55 7022.63,2690.95 6988.00,2661.13
             6964.51,2640.91 6950.29,2625.29 6932.42,2600.00
             6915.96,2576.70 6904.65,2549.94 6895.67,2523.00
             6880.47,2477.40 6876.18,2448.58 6872.91,2401.00
             6872.91,2401.00 6871.00,2371.00 6871.00,2371.00
             6871.00,2371.00 6870.04,2361.00 6870.04,2361.00
             6870.04,2361.00 6870.04,2348.00 6870.04,2348.00
             6870.04,2348.00 6869.00,2331.00 6869.00,2331.00
             6869.00,2331.00 6869.00,2309.00 6869.00,2309.00
             6869.00,2309.00 6868.00,2293.00 6868.00,2293.00
             6868.00,2293.00 6868.00,1654.00 6868.00,1654.00
             6868.00,1654.00 6638.00,1654.00 6638.00,1654.00 Z
           M 26583.00,1654.00
           C 26583.00,1654.00 26583.00,1634.00 26583.00,1634.00
             26583.00,1634.00 26584.02,1626.00 26584.02,1626.00
             26584.02,1626.00 26592.00,1617.00 26592.00,1617.00
             26592.00,1617.00 26609.00,1600.00 26609.00,1600.00
             26609.00,1600.00 26633.00,1576.99 26633.00,1576.99
             26633.00,1576.99 26679.00,1531.01 26679.00,1531.01
             26679.00,1531.01 26692.00,1519.00 26692.00,1519.00
             26692.00,1519.00 26736.00,1475.01 26736.00,1475.01
             26736.00,1475.01 26748.00,1464.00 26748.00,1464.00
             26748.00,1464.00 26793.00,1419.01 26793.00,1419.01
             26793.00,1419.01 26804.00,1408.99 26804.00,1408.99
             26804.00,1408.99 26850.00,1363.01 26850.00,1363.01
             26850.00,1363.01 26861.00,1352.99 26861.00,1352.99
             26861.00,1352.99 26907.00,1307.01 26907.00,1307.01
             26907.00,1307.01 26919.00,1296.00 26919.00,1296.00
             26919.00,1296.00 26973.00,1242.91 26973.00,1242.91
             26973.00,1242.91 27015.00,1201.00 27015.00,1201.00
             27015.00,1201.00 27043.00,1174.00 27043.00,1174.00
             27043.00,1174.00 27063.00,1154.00 27063.00,1154.00
             27063.00,1154.00 27076.00,1143.00 27076.00,1143.00
             27076.00,1143.00 27076.00,1416.00 27076.00,1416.00
             27076.00,1416.00 27495.00,1416.00 27495.00,1416.00
             27495.00,1416.00 27495.00,1654.00 27495.00,1654.00
             27495.00,1654.00 27076.00,1654.00 27076.00,1654.00
             27076.00,1654.00 27076.00,2093.00 27076.00,2093.00
             27076.00,2093.00 27076.00,2313.00 27076.00,2313.00
             27076.00,2313.00 27077.00,2332.00 27077.00,2332.00
             27077.00,2332.00 27081.59,2372.00 27081.59,2372.00
             27089.92,2421.65 27109.44,2469.05 27152.00,2498.96
             27163.69,2507.18 27176.56,2513.52 27190.00,2518.31
             27214.26,2526.94 27245.32,2530.30 27271.00,2530.00
             27271.00,2530.00 27289.00,2529.00 27289.00,2529.00
             27289.00,2529.00 27299.00,2528.09 27299.00,2528.09
             27299.00,2528.09 27347.00,2521.61 27347.00,2521.61
             27401.24,2511.46 27444.20,2494.56 27494.00,2471.69
             27494.00,2471.69 27539.00,2447.85 27539.00,2447.85
             27545.06,2444.39 27557.06,2436.73 27563.00,2435.00
             27563.00,2435.00 27563.00,2673.00 27563.00,2673.00
             27563.00,2675.19 27563.25,2678.54 27562.01,2680.39
             27560.30,2682.94 27552.93,2686.23 27550.00,2687.78
             27550.00,2687.78 27523.00,2701.42 27523.00,2701.42
             27523.00,2701.42 27488.00,2716.99 27488.00,2716.99
             27455.02,2730.60 27420.74,2740.89 27386.00,2748.88
             27350.30,2757.09 27313.56,2762.45 27277.00,2764.04
             27277.00,2764.04 27264.00,2765.00 27264.00,2765.00
             27264.00,2765.00 27247.00,2765.00 27247.00,2765.00
             27247.00,2765.00 27232.00,2765.96 27232.00,2765.96
             27232.00,2765.96 27219.00,2765.00 27219.00,2765.00
             27161.19,2764.91 27102.77,2754.06 27049.00,2732.55
             27006.50,2715.55 26967.63,2690.95 26933.00,2661.13
             26909.51,2640.91 26895.29,2625.29 26877.42,2600.00
             26860.96,2576.70 26849.65,2549.94 26840.67,2523.00
             26825.47,2477.40 26821.18,2448.58 26817.91,2401.00
             26817.91,2401.00 26816.00,2371.00 26816.00,2371.00
             26816.00,2371.00 26815.04,2361.00 26815.04,2361.00
             26815.04,2361.00 26815.04,2348.00 26815.04,2348.00
             26815.04,2348.00 26814.00,2331.00 26814.00,2331.00
             26814.00,2331.00 26814.00,2309.00 26814.00,2309.00
             26814.00,2309.00 26813.00,2293.00 26813.00,2293.00
             26813.00,2293.00 26813.00,1654.00 26813.00,1654.00
             26813.00,1654.00 26583.00,1654.00 26583.00,1654.00 Z
           M 18785.00,1162.00
           C 18785.00,1162.00 18771.80,1192.00 18771.80,1192.00
             18771.80,1192.00 18750.80,1243.00 18750.80,1243.00
             18750.80,1243.00 18685.99,1400.00 18685.99,1400.00
             18685.99,1400.00 18545.99,1739.00 18545.99,1739.00
             18545.99,1739.00 18484.00,1889.00 18484.00,1889.00
             18484.00,1889.00 19108.00,1889.00 19108.00,1889.00
             19108.00,1889.00 19080.86,1828.00 19080.86,1828.00
             19080.86,1828.00 19015.86,1682.00 19015.86,1682.00
             19015.86,1682.00 18885.70,1389.00 18885.70,1389.00
             18885.70,1389.00 18818.14,1237.00 18818.14,1237.00
             18818.14,1237.00 18785.00,1162.00 18785.00,1162.00 Z
           M 10313.00,1629.00
           C 10313.00,1629.00 10328.17,1612.00 10328.17,1612.00
             10328.17,1612.00 10350.96,1588.00 10350.96,1588.00
             10350.96,1588.00 10367.00,1571.01 10367.00,1571.01
             10367.00,1571.01 10377.00,1561.96 10377.00,1561.96
             10377.00,1561.96 10389.00,1550.09 10389.00,1550.09
             10431.18,1510.79 10475.98,1477.58 10526.00,1449.00
             10577.59,1419.52 10644.70,1396.10 10704.00,1390.17
             10704.00,1390.17 10732.00,1388.00 10732.00,1388.00
             10732.00,1388.00 10778.00,1388.00 10778.00,1388.00
             10778.00,1388.00 10801.00,1389.83 10801.00,1389.83
             10858.05,1395.54 10908.42,1409.95 10959.00,1437.31
             11003.99,1461.64 11044.81,1497.08 11077.73,1536.00
             11110.02,1574.19 11134.78,1621.17 11151.95,1668.00
             11172.92,1725.21 11184.12,1785.55 11190.17,1846.00
             11190.17,1846.00 11193.09,1883.00 11193.09,1883.00
             11193.09,1883.00 11194.00,1895.00 11194.00,1895.00
             11194.00,1895.00 11195.00,1912.00 11195.00,1912.00
             11195.00,1912.00 11195.00,1933.00 11195.00,1933.00
             11195.00,1933.00 11196.00,1949.00 11196.00,1949.00
             11196.00,1949.00 11196.00,2113.00 11196.00,2113.00
             11196.00,2113.00 11196.00,2742.00 11196.00,2742.00
             11196.00,2742.00 10932.00,2742.00 10932.00,2742.00
             10932.00,2742.00 10932.00,2092.00 10932.00,2092.00
             10932.00,2092.00 10932.00,1983.00 10932.00,1983.00
             10932.00,1983.00 10932.00,1927.00 10932.00,1927.00
             10932.00,1927.00 10931.09,1915.00 10931.09,1915.00
             10931.09,1915.00 10928.16,1880.00 10928.16,1880.00
             10922.97,1831.44 10909.93,1779.89 10886.14,1737.00
             10873.21,1713.69 10857.53,1693.28 10838.00,1675.09
             10789.42,1629.83 10726.61,1615.25 10662.00,1616.00
             10662.00,1616.00 10652.00,1616.91 10652.00,1616.91
             10585.60,1621.45 10526.07,1644.94 10472.00,1683.58
             10442.13,1704.93 10414.91,1729.17 10389.91,1756.00
             10385.46,1760.78 10369.38,1776.99 10367.59,1782.00
             10366.88,1783.99 10367.00,1786.87 10367.00,1789.00
             10367.00,1789.00 10367.00,2742.00 10367.00,2742.00
             10367.00,2742.00 10103.00,2742.00 10103.00,2742.00
             10103.00,2742.00 10103.00,2236.00 10103.00,2236.00
             10103.00,2236.00 10103.00,2067.00 10103.00,2067.00
             10103.00,2067.00 10103.00,1982.00 10103.00,1982.00
             10103.00,1982.00 10102.00,1967.00 10102.00,1967.00
             10101.92,1915.69 10095.71,1848.90 10083.88,1799.00
             10077.23,1770.93 10067.80,1739.17 10053.58,1714.00
             10046.59,1701.63 10037.78,1688.27 10027.96,1678.00
             10015.95,1665.44 10006.65,1657.13 9992.00,1647.69
             9960.07,1627.12 9921.47,1616.84 9884.00,1612.84
             9884.00,1612.84 9864.00,1610.96 9864.00,1610.96
             9864.00,1610.96 9853.00,1610.96 9853.00,1610.96
             9853.00,1610.96 9841.00,1610.00 9841.00,1610.00
             9841.00,1610.00 9835.00,1610.00 9835.00,1610.00
             9835.00,1610.00 9821.00,1611.00 9821.00,1611.00
             9789.95,1611.15 9749.81,1620.92 9721.00,1632.45
             9687.87,1645.70 9657.79,1665.40 9630.00,1687.60
             9630.00,1687.60 9580.00,1731.91 9580.00,1731.91
             9570.58,1740.69 9561.04,1749.25 9552.58,1759.00
             9548.11,1764.14 9534.84,1776.09 9532.85,1781.00
             9531.85,1783.47 9532.01,1786.37 9532.00,1789.00
             9532.00,1789.00 9532.00,2742.00 9532.00,2742.00
             9532.00,2742.00 9269.00,2742.00 9269.00,2742.00
             9269.00,2742.00 9269.00,1416.00 9269.00,1416.00
             9269.00,1416.00 9532.00,1416.00 9532.00,1416.00
             9532.00,1416.00 9532.00,1589.00 9532.00,1589.00
             9614.44,1506.56 9718.64,1428.23 9834.00,1400.88
             9851.44,1396.75 9884.50,1391.08 9902.00,1391.00
             9902.00,1391.00 9925.00,1390.00 9925.00,1390.00
             9925.00,1390.00 9940.00,1391.00 9940.00,1391.00
             9964.39,1391.04 9989.06,1393.81 10013.00,1398.60
             10047.86,1405.57 10076.61,1414.44 10109.00,1429.31
             10148.84,1447.60 10181.62,1471.58 10214.00,1500.83
             10241.46,1525.64 10269.06,1559.15 10289.67,1590.00
             10295.18,1598.26 10310.39,1620.73 10313.00,1629.00 Z
           M 4007.00,1858.00
           C 4007.00,1858.00 4007.00,1578.00 4007.00,1578.00
             4007.02,1567.46 4011.01,1565.51 4017.92,1558.00
             4017.92,1558.00 4043.00,1532.00 4043.00,1532.00
             4082.98,1492.50 4136.43,1459.58 4188.00,1437.58
             4237.67,1416.39 4290.56,1403.69 4344.00,1396.72
             4344.00,1396.72 4398.00,1391.96 4398.00,1391.96
             4398.00,1391.96 4411.00,1391.00 4411.00,1391.00
             4411.00,1391.00 4428.00,1391.00 4428.00,1391.00
             4428.00,1391.00 4443.00,1390.04 4443.00,1390.04
             4443.00,1390.04 4458.00,1390.04 4458.00,1390.04
             4458.00,1390.04 4469.00,1391.00 4469.00,1391.00
             4469.00,1391.00 4483.00,1391.00 4483.00,1391.00
             4483.00,1391.00 4494.00,1391.96 4494.00,1391.96
             4515.11,1392.88 4536.10,1395.33 4557.00,1398.58
             4653.75,1413.60 4748.49,1454.41 4816.96,1526.00
             4857.27,1568.14 4893.91,1634.23 4908.11,1691.00
             4915.19,1719.35 4917.77,1748.92 4919.04,1778.00
             4919.04,1778.00 4920.00,1790.00 4920.00,1790.00
             4920.00,1790.00 4921.00,1812.00 4921.00,1812.00
             4921.00,1812.00 4921.00,1826.00 4921.00,1826.00
             4921.00,1826.00 4922.00,1841.00 4922.00,1841.00
             4922.00,1841.00 4922.00,1873.00 4922.00,1873.00
             4922.00,1873.00 4923.00,1890.00 4923.00,1890.00
             4923.00,1890.00 4923.00,2167.00 4923.00,2167.00
             4923.00,2167.00 4923.00,2399.00 4923.00,2399.00
             4923.00,2399.00 4923.00,2516.00 4923.00,2516.00
             4923.34,2544.61 4936.15,2577.27 4970.00,2575.96
             4987.70,2575.27 5012.20,2566.15 5028.00,2558.25
             5028.00,2558.25 5079.00,2529.95 5079.00,2529.95
             5079.00,2529.95 5101.00,2515.66 5101.00,2515.66
             5101.00,2515.66 5117.00,2505.00 5117.00,2505.00
             5117.00,2505.00 5117.00,2659.00 5117.00,2659.00
             5117.00,2661.24 5117.24,2664.56 5116.01,2666.47
             5114.79,2668.35 5110.96,2670.43 5109.00,2671.69
             5109.00,2671.69 5092.00,2682.42 5092.00,2682.42
             5064.33,2699.66 5036.16,2715.67 5007.00,2730.25
             4965.09,2751.20 4919.00,2764.45 4872.00,2765.00
             4872.00,2765.00 4861.00,2765.92 4861.00,2765.92
             4861.00,2765.92 4853.00,2765.04 4853.00,2765.04
             4853.00,2765.04 4838.00,2765.04 4838.00,2765.04
             4838.00,2765.04 4828.00,2764.09 4828.00,2764.09
             4803.92,2762.33 4779.48,2757.59 4757.00,2748.60
             4716.20,2732.28 4687.26,2705.03 4670.80,2664.00
             4667.22,2655.08 4662.80,2643.55 4662.00,2634.00
             4662.00,2634.00 4628.00,2658.33 4628.00,2658.33
             4598.34,2678.32 4567.55,2696.75 4535.00,2711.69
             4471.15,2741.01 4396.48,2761.18 4326.00,2762.00
             4326.00,2762.00 4311.00,2762.96 4311.00,2762.96
             4311.00,2762.96 4298.00,2762.96 4298.00,2762.96
             4298.00,2762.96 4288.00,2762.00 4288.00,2762.00
             4246.77,2761.52 4201.45,2750.89 4164.00,2733.69
             4131.59,2718.81 4108.58,2701.71 4082.00,2678.28
             4054.59,2654.13 4027.94,2617.29 4012.69,2584.00
             3996.91,2549.53 3988.60,2518.69 3984.83,2481.00
             3984.83,2481.00 3983.00,2460.00 3983.00,2460.00
             3983.00,2460.00 3983.00,2426.00 3983.00,2426.00
             3983.03,2407.25 3988.35,2375.23 3993.42,2357.00
             3999.77,2334.19 4008.02,2311.87 4019.31,2291.00
             4067.81,2201.32 4154.55,2135.30 4246.00,2093.31
             4269.55,2082.49 4293.57,2072.38 4318.00,2063.69
             4318.00,2063.69 4400.00,2035.42 4400.00,2035.42
             4400.00,2035.42 4461.00,2014.66 4461.00,2014.66
             4461.00,2014.66 4602.00,1966.00 4602.00,1966.00
             4602.00,1966.00 4647.00,1950.67 4647.00,1950.67
             4650.76,1949.41 4661.00,1946.88 4662.98,1943.73
             4664.21,1941.76 4664.00,1938.28 4664.00,1936.00
             4664.00,1936.00 4664.00,1861.00 4664.00,1861.00
             4664.00,1861.00 4662.96,1851.00 4662.96,1851.00
             4662.96,1851.00 4662.96,1842.00 4662.96,1842.00
             4660.65,1819.06 4657.25,1795.96 4650.00,1774.00
             4644.01,1755.85 4635.48,1736.73 4624.57,1721.00
             4590.95,1672.56 4542.61,1650.22 4486.00,1640.92
             4486.00,1640.92 4451.00,1637.00 4451.00,1637.00
             4451.00,1637.00 4431.00,1636.00 4431.00,1636.00
             4431.00,1636.00 4418.00,1636.00 4418.00,1636.00
             4418.00,1636.00 4402.00,1637.00 4402.00,1637.00
             4402.00,1637.00 4359.00,1641.75 4359.00,1641.75
             4341.86,1644.56 4323.63,1648.73 4307.00,1653.72
             4286.22,1659.95 4265.74,1667.27 4246.00,1676.31
             4219.73,1688.34 4194.15,1702.08 4170.00,1718.00
             4137.98,1739.12 4107.52,1762.50 4079.00,1788.17
             4079.00,1788.17 4052.00,1813.17 4052.00,1813.17
             4052.00,1813.17 4021.00,1845.00 4021.00,1845.00
             4017.13,1848.89 4011.60,1855.63 4007.00,1858.00 Z
           M 5611.00,1584.00
           C 5611.00,1584.00 5635.09,1558.04 5635.09,1558.04
             5635.09,1558.04 5645.00,1548.99 5645.00,1548.99
             5699.73,1495.58 5761.78,1451.94 5833.00,1423.45
             5883.81,1403.12 5939.31,1391.64 5994.00,1391.00
             5994.00,1391.00 6010.00,1390.00 6010.00,1390.00
             6010.00,1390.00 6021.00,1390.96 6021.00,1390.96
             6021.00,1390.96 6036.00,1390.96 6036.00,1390.96
             6036.00,1390.96 6046.00,1391.91 6046.00,1391.91
             6080.27,1394.31 6114.25,1400.88 6147.00,1411.34
             6214.30,1432.85 6276.12,1471.12 6326.00,1521.00
             6359.94,1554.94 6394.67,1606.29 6412.55,1651.00
             6433.48,1703.32 6444.19,1761.12 6450.16,1817.00
             6450.16,1817.00 6454.00,1853.00 6454.00,1853.00
             6454.00,1853.00 6454.00,1862.00 6454.00,1862.00
             6454.00,1862.00 6455.09,1876.00 6455.09,1876.00
             6455.09,1876.00 6456.00,1886.00 6456.00,1886.00
             6456.00,1886.00 6457.04,1906.00 6457.04,1906.00
             6457.04,1906.00 6457.04,1919.00 6457.04,1919.00
             6457.04,1919.00 6458.00,1931.00 6458.00,1931.00
             6458.00,1931.00 6458.00,2087.00 6458.00,2087.00
             6458.00,2087.00 6458.00,2742.00 6458.00,2742.00
             6458.00,2742.00 6195.00,2742.00 6195.00,2742.00
             6195.00,2742.00 6195.00,2081.00 6195.00,2081.00
             6195.00,2081.00 6195.00,1951.00 6195.00,1951.00
             6195.00,1951.00 6194.00,1936.00 6194.00,1936.00
             6194.00,1936.00 6194.00,1929.00 6194.00,1929.00
             6194.00,1929.00 6193.04,1918.00 6193.04,1918.00
             6192.05,1895.26 6189.52,1872.56 6186.27,1850.00
             6179.69,1804.34 6166.85,1754.12 6143.72,1714.00
             6137.58,1703.36 6127.23,1688.94 6118.91,1680.00
             6084.43,1642.98 6043.78,1625.55 5995.00,1616.20
             5984.03,1614.09 5962.87,1611.13 5952.00,1610.96
             5952.00,1610.96 5941.00,1610.96 5941.00,1610.96
             5941.00,1610.96 5929.00,1610.00 5929.00,1610.00
             5929.00,1610.00 5905.00,1611.00 5905.00,1611.00
             5894.95,1611.12 5877.25,1613.87 5867.00,1615.59
             5807.47,1625.58 5752.22,1653.30 5706.00,1691.75
             5676.77,1716.06 5655.39,1739.39 5631.80,1769.00
             5628.07,1773.68 5613.51,1792.60 5611.84,1797.00
             5610.86,1799.59 5611.01,1802.28 5611.00,1805.00
             5611.00,1805.00 5611.00,2742.00 5611.00,2742.00
             5611.00,2742.00 5343.00,2742.00 5343.00,2742.00
             5343.00,2742.00 5343.00,1416.00 5343.00,1416.00
             5343.00,1416.00 5611.00,1416.00 5611.00,1416.00
             5611.00,1416.00 5611.00,1584.00 5611.00,1584.00 Z
           M 14767.00,1584.00
           C 14767.00,1584.00 14791.09,1558.04 14791.09,1558.04
             14791.09,1558.04 14801.00,1548.99 14801.00,1548.99
             14855.73,1495.58 14917.78,1451.94 14989.00,1423.45
             15039.81,1403.12 15095.31,1391.64 15150.00,1391.00
             15150.00,1391.00 15166.00,1390.00 15166.00,1390.00
             15166.00,1390.00 15177.00,1390.96 15177.00,1390.96
             15177.00,1390.96 15192.00,1390.96 15192.00,1390.96
             15192.00,1390.96 15202.00,1391.91 15202.00,1391.91
             15236.27,1394.31 15270.25,1400.88 15303.00,1411.34
             15370.30,1432.85 15432.12,1471.12 15482.00,1521.00
             15515.94,1554.94 15550.67,1606.29 15568.55,1651.00
             15589.48,1703.32 15600.19,1761.12 15606.16,1817.00
             15606.16,1817.00 15610.00,1853.00 15610.00,1853.00
             15610.00,1853.00 15610.00,1862.00 15610.00,1862.00
             15610.00,1862.00 15611.09,1876.00 15611.09,1876.00
             15611.09,1876.00 15612.00,1886.00 15612.00,1886.00
             15612.00,1886.00 15613.04,1906.00 15613.04,1906.00
             15613.04,1906.00 15613.04,1919.00 15613.04,1919.00
             15613.04,1919.00 15614.00,1931.00 15614.00,1931.00
             15614.00,1931.00 15614.00,2087.00 15614.00,2087.00
             15614.00,2087.00 15614.00,2742.00 15614.00,2742.00
             15614.00,2742.00 15351.00,2742.00 15351.00,2742.00
             15351.00,2742.00 15351.00,2081.00 15351.00,2081.00
             15351.00,2081.00 15351.00,1951.00 15351.00,1951.00
             15351.00,1951.00 15350.00,1936.00 15350.00,1936.00
             15350.00,1936.00 15350.00,1929.00 15350.00,1929.00
             15350.00,1929.00 15349.04,1918.00 15349.04,1918.00
             15348.05,1895.26 15345.52,1872.56 15342.27,1850.00
             15335.69,1804.34 15322.85,1754.12 15299.72,1714.00
             15293.58,1703.36 15283.23,1688.94 15274.91,1680.00
             15240.43,1642.98 15199.78,1625.55 15151.00,1616.20
             15140.03,1614.09 15118.87,1611.13 15108.00,1610.96
             15108.00,1610.96 15097.00,1610.96 15097.00,1610.96
             15097.00,1610.96 15085.00,1610.00 15085.00,1610.00
             15085.00,1610.00 15061.00,1611.00 15061.00,1611.00
             15050.95,1611.12 15033.25,1613.87 15023.00,1615.59
             14963.47,1625.58 14908.22,1653.30 14862.00,1691.75
             14832.77,1716.06 14811.39,1739.39 14787.80,1769.00
             14784.07,1773.68 14769.51,1792.60 14767.84,1797.00
             14766.86,1799.59 14767.01,1802.28 14767.00,1805.00
             14767.00,1805.00 14767.00,2742.00 14767.00,2742.00
             14767.00,2742.00 14499.00,2742.00 14499.00,2742.00
             14499.00,2742.00 14499.00,1416.00 14499.00,1416.00
             14499.00,1416.00 14767.00,1416.00 14767.00,1416.00
             14767.00,1416.00 14767.00,1584.00 14767.00,1584.00 Z
           M 30288.00,1584.00
           C 30288.00,1584.00 30312.09,1558.04 30312.09,1558.04
             30312.09,1558.04 30322.00,1548.99 30322.00,1548.99
             30376.73,1495.58 30438.78,1451.94 30510.00,1423.45
             30560.81,1403.12 30616.31,1391.64 30671.00,1391.00
             30671.00,1391.00 30687.00,1390.00 30687.00,1390.00
             30687.00,1390.00 30698.00,1390.96 30698.00,1390.96
             30698.00,1390.96 30713.00,1390.96 30713.00,1390.96
             30713.00,1390.96 30723.00,1391.91 30723.00,1391.91
             30757.27,1394.31 30791.25,1400.88 30824.00,1411.34
             30891.30,1432.85 30953.12,1471.12 31003.00,1521.00
             31036.94,1554.94 31071.67,1606.29 31089.55,1651.00
             31110.48,1703.32 31121.19,1761.12 31127.16,1817.00
             31127.16,1817.00 31131.00,1853.00 31131.00,1853.00
             31131.00,1853.00 31131.00,1862.00 31131.00,1862.00
             31131.00,1862.00 31132.09,1876.00 31132.09,1876.00
             31132.09,1876.00 31133.00,1886.00 31133.00,1886.00
             31133.00,1886.00 31134.04,1906.00 31134.04,1906.00
             31134.04,1906.00 31134.04,1919.00 31134.04,1919.00
             31134.04,1919.00 31135.00,1931.00 31135.00,1931.00
             31135.00,1931.00 31135.00,2087.00 31135.00,2087.00
             31135.00,2087.00 31135.00,2742.00 31135.00,2742.00
             31135.00,2742.00 30872.00,2742.00 30872.00,2742.00
             30872.00,2742.00 30872.00,2081.00 30872.00,2081.00
             30872.00,2081.00 30872.00,1951.00 30872.00,1951.00
             30872.00,1951.00 30871.00,1936.00 30871.00,1936.00
             30871.00,1936.00 30871.00,1929.00 30871.00,1929.00
             30871.00,1929.00 30870.04,1918.00 30870.04,1918.00
             30869.05,1895.26 30866.52,1872.56 30863.27,1850.00
             30856.69,1804.34 30843.85,1754.12 30820.72,1714.00
             30814.58,1703.36 30804.23,1688.94 30795.91,1680.00
             30761.43,1642.98 30720.78,1625.55 30672.00,1616.20
             30661.03,1614.09 30639.87,1611.13 30629.00,1610.96
             30629.00,1610.96 30618.00,1610.96 30618.00,1610.96
             30618.00,1610.96 30606.00,1610.00 30606.00,1610.00
             30606.00,1610.00 30582.00,1611.00 30582.00,1611.00
             30571.95,1611.12 30554.25,1613.87 30544.00,1615.59
             30484.47,1625.58 30429.22,1653.30 30383.00,1691.75
             30353.77,1716.06 30332.39,1739.39 30308.80,1769.00
             30305.07,1773.68 30290.51,1792.60 30288.84,1797.00
             30287.86,1799.59 30288.01,1802.28 30288.00,1805.00
             30288.00,1805.00 30288.00,2742.00 30288.00,2742.00
             30288.00,2742.00 30020.00,2742.00 30020.00,2742.00
             30020.00,2742.00 30020.00,1416.00 30020.00,1416.00
             30020.00,1416.00 30288.00,1416.00 30288.00,1416.00
             30288.00,1416.00 30288.00,1584.00 30288.00,1584.00 Z
           M 31436.00,2364.00
           C 31436.00,2364.00 31472.00,2388.00 31472.00,2388.00
             31472.00,2388.00 31527.00,2421.99 31527.00,2421.99
             31587.44,2457.50 31656.47,2490.16 31723.00,2512.33
             31755.74,2523.25 31789.61,2532.49 31824.00,2536.16
             31824.00,2536.16 31843.00,2538.00 31843.00,2538.00
             31843.00,2538.00 31873.00,2538.00 31873.00,2538.00
             31873.00,2538.00 31894.00,2536.15 31894.00,2536.15
             31936.66,2531.06 31978.66,2515.29 32012.00,2487.75
             32034.81,2468.91 32054.34,2443.44 32057.00,2413.00
             32058.28,2398.33 32057.86,2388.55 32055.00,2374.00
             32051.76,2357.54 32047.26,2345.41 32038.55,2331.00
             32024.53,2307.80 31998.87,2288.21 31977.00,2272.58
             31935.88,2243.19 31890.96,2217.47 31847.00,2192.58
             31847.00,2192.58 31766.00,2145.40 31766.00,2145.40
             31719.29,2117.37 31673.59,2087.57 31630.00,2054.87
             31597.04,2030.15 31564.84,2003.60 31537.17,1973.00
             31496.17,1927.67 31464.70,1868.87 31451.79,1809.00
             31451.79,1809.00 31445.04,1765.00 31445.04,1765.00
             31445.04,1765.00 31445.04,1756.00 31445.04,1756.00
             31445.04,1756.00 31444.00,1746.00 31444.00,1746.00
             31443.58,1709.96 31447.29,1673.63 31457.72,1639.00
             31465.30,1613.83 31475.57,1591.45 31489.20,1569.00
             31502.33,1547.38 31518.17,1528.83 31536.00,1511.00
             31601.08,1445.92 31689.53,1408.47 31780.00,1396.28
             31802.54,1393.24 31825.27,1391.04 31848.00,1391.00
             31848.00,1391.00 31865.00,1390.04 31865.00,1390.04
             31865.00,1390.04 31879.00,1390.04 31879.00,1390.04
             31879.00,1390.04 31889.00,1391.00 31889.00,1391.00
             31990.29,1392.18 32092.25,1419.32 32185.00,1459.15
             32185.00,1459.15 32249.00,1489.25 32249.00,1489.25
             32253.40,1491.45 32266.61,1497.04 32268.40,1501.21
             32269.12,1502.89 32269.00,1506.12 32269.00,1508.00
             32269.00,1508.00 32269.00,1760.00 32269.00,1760.00
             32262.69,1758.01 32244.16,1746.12 32237.00,1742.00
             32237.00,1742.00 32174.00,1707.26 32174.00,1707.26
             32116.34,1677.51 32054.85,1650.62 31992.00,1634.12
             31964.32,1626.85 31936.54,1621.87 31908.00,1619.91
             31908.00,1619.91 31898.00,1619.00 31898.00,1619.00
             31898.00,1619.00 31877.00,1619.00 31877.00,1619.00
             31877.00,1619.00 31853.00,1620.93 31853.00,1620.93
             31800.37,1625.80 31736.33,1653.61 31721.15,1709.00
             31719.39,1715.44 31716.73,1731.67 31717.18,1738.00
             31720.38,1783.01 31744.45,1811.79 31778.00,1839.75
             31824.14,1878.21 31882.82,1909.50 31935.00,1939.42
             31935.00,1939.42 32021.00,1988.42 32021.00,1988.42
             32045.56,2002.68 32069.63,2017.87 32093.00,2033.98
             32093.00,2033.98 32139.00,2067.21 32139.00,2067.21
             32222.91,2133.26 32298.26,2212.54 32324.87,2319.00
             32329.44,2337.26 32331.81,2355.28 32333.09,2374.00
             32333.09,2374.00 32334.00,2384.00 32334.00,2384.00
             32334.47,2424.87 32330.08,2460.70 32318.58,2500.00
             32290.28,2596.69 32206.89,2676.42 32117.00,2717.69
             32084.71,2732.52 32050.70,2743.91 32016.00,2751.58
             31985.18,2758.38 31953.49,2762.67 31922.00,2764.04
             31922.00,2764.04 31909.00,2765.00 31909.00,2765.00
             31909.00,2765.00 31890.00,2765.00 31890.00,2765.00
             31890.00,2765.00 31876.00,2765.96 31876.00,2765.96
             31876.00,2765.96 31863.00,2765.00 31863.00,2765.00
             31863.00,2765.00 31839.00,2765.00 31839.00,2765.00
             31839.00,2765.00 31822.00,2764.00 31822.00,2764.00
             31822.00,2764.00 31785.00,2761.17 31785.00,2761.17
             31746.06,2757.27 31707.90,2751.08 31670.00,2741.12
             31623.72,2728.95 31570.12,2708.09 31526.00,2689.15
             31526.00,2689.15 31457.00,2657.78 31457.00,2657.78
             31453.18,2655.97 31438.93,2650.13 31436.99,2647.37
             31435.75,2645.58 31436.00,2642.13 31436.00,2640.00
             31436.00,2640.00 31436.00,2364.00 31436.00,2364.00 Z
           M 23645.00,1413.42
           C 23655.63,1412.13 23659.38,1413.99 23669.00,1414.00
             23669.00,1414.00 23688.00,1414.00 23688.00,1414.00
             23688.00,1414.00 23708.00,1415.00 23708.00,1415.00
             23708.00,1415.00 23718.00,1415.91 23718.00,1415.91
             23718.00,1415.91 23741.00,1417.83 23741.00,1417.83
             23774.00,1421.13 23806.71,1426.46 23839.00,1434.12
             23967.37,1464.55 24083.90,1530.19 24174.09,1627.00
             24174.09,1627.00 24183.83,1637.00 24183.83,1637.00
             24209.52,1665.39 24233.41,1695.64 24253.95,1728.00
             24305.01,1808.46 24334.70,1892.89 24348.27,1987.00
             24351.93,2012.42 24354.70,2038.34 24355.00,2064.00
             24355.00,2064.00 24356.00,2079.00 24356.00,2079.00
             24356.00,2079.00 24356.00,2119.00 24356.00,2119.00
             24356.00,2119.00 24355.04,2131.00 24355.04,2131.00
             24355.04,2131.00 24355.04,2142.00 24355.04,2142.00
             24355.04,2142.00 24354.09,2152.00 24354.09,2152.00
             24354.09,2152.00 24350.15,2194.00 24350.15,2194.00
             24343.35,2250.94 24328.08,2309.25 24305.57,2362.00
             24246.68,2500.04 24132.89,2616.17 24000.00,2684.74
             23951.93,2709.55 23900.46,2728.51 23848.00,2741.63
             23809.89,2751.15 23771.05,2757.26 23732.00,2761.17
             23732.00,2761.17 23708.00,2763.09 23708.00,2763.09
             23708.00,2763.09 23696.00,2764.00 23696.00,2764.00
             23696.00,2764.00 23678.00,2765.00 23678.00,2765.00
             23678.00,2765.00 23654.00,2765.00 23654.00,2765.00
             23654.00,2765.00 23640.00,2765.91 23640.00,2765.91
             23640.00,2765.91 23628.00,2765.00 23628.00,2765.00
             23628.00,2765.00 23606.00,2765.00 23606.00,2765.00
             23606.00,2765.00 23587.00,2764.00 23587.00,2764.00
             23587.00,2764.00 23577.00,2763.09 23577.00,2763.09
             23577.00,2763.09 23536.00,2759.16 23536.00,2759.16
             23492.26,2754.48 23439.74,2742.58 23398.00,2728.67
             23367.27,2718.42 23336.98,2706.22 23308.00,2691.73
             23184.57,2630.02 23080.82,2528.15 23015.31,2407.00
             22979.86,2341.45 22956.68,2261.89 22947.85,2188.00
             22945.51,2168.49 22943.03,2148.66 22943.00,2129.00
             22943.00,2129.00 22942.00,2112.00 22942.00,2112.00
             22942.00,2112.00 22942.00,2070.00 22942.00,2070.00
             22942.00,2070.00 22943.00,2057.00 22943.00,2057.00
             22943.00,2057.00 22946.84,2005.00 22946.84,2005.00
             22955.80,1921.20 22980.20,1841.16 23020.31,1767.00
             23045.02,1721.31 23077.58,1676.99 23112.91,1639.00
             23202.53,1542.64 23312.37,1473.43 23440.00,1439.88
             23474.54,1430.81 23509.55,1424.08 23545.00,1419.85
             23545.00,1419.85 23587.00,1415.91 23587.00,1415.91
             23587.00,1415.91 23598.00,1415.00 23598.00,1415.00
             23598.00,1415.00 23616.00,1414.00 23616.00,1414.00
             23616.00,1414.00 23645.00,1413.42 23645.00,1413.42 Z
           M 29024.00,1413.42
           C 29034.63,1412.13 29038.38,1413.99 29048.00,1414.00
             29048.00,1414.00 29067.00,1414.00 29067.00,1414.00
             29067.00,1414.00 29087.00,1415.00 29087.00,1415.00
             29087.00,1415.00 29097.00,1415.91 29097.00,1415.91
             29097.00,1415.91 29120.00,1417.83 29120.00,1417.83
             29153.00,1421.13 29185.71,1426.46 29218.00,1434.12
             29346.37,1464.55 29462.90,1530.19 29553.09,1627.00
             29553.09,1627.00 29562.83,1637.00 29562.83,1637.00
             29588.52,1665.39 29612.41,1695.64 29632.95,1728.00
             29684.01,1808.46 29713.70,1892.89 29727.27,1987.00
             29730.93,2012.42 29733.70,2038.34 29734.00,2064.00
             29734.00,2064.00 29735.00,2079.00 29735.00,2079.00
             29735.00,2079.00 29735.00,2119.00 29735.00,2119.00
             29735.00,2119.00 29734.04,2131.00 29734.04,2131.00
             29734.04,2131.00 29734.04,2142.00 29734.04,2142.00
             29734.04,2142.00 29733.09,2152.00 29733.09,2152.00
             29733.09,2152.00 29729.15,2194.00 29729.15,2194.00
             29722.35,2250.94 29707.08,2309.25 29684.57,2362.00
             29625.68,2500.04 29511.89,2616.17 29379.00,2684.74
             29330.93,2709.55 29279.46,2728.51 29227.00,2741.63
             29188.89,2751.15 29150.05,2757.26 29111.00,2761.17
             29111.00,2761.17 29087.00,2763.09 29087.00,2763.09
             29087.00,2763.09 29075.00,2764.00 29075.00,2764.00
             29075.00,2764.00 29057.00,2765.00 29057.00,2765.00
             29057.00,2765.00 29033.00,2765.00 29033.00,2765.00
             29033.00,2765.00 29019.00,2765.91 29019.00,2765.91
             29019.00,2765.91 29007.00,2765.00 29007.00,2765.00
             29007.00,2765.00 28985.00,2765.00 28985.00,2765.00
             28985.00,2765.00 28966.00,2764.00 28966.00,2764.00
             28966.00,2764.00 28956.00,2763.09 28956.00,2763.09
             28956.00,2763.09 28915.00,2759.16 28915.00,2759.16
             28871.26,2754.48 28818.74,2742.58 28777.00,2728.67
             28746.27,2718.42 28715.98,2706.22 28687.00,2691.73
             28563.57,2630.02 28459.82,2528.15 28394.31,2407.00
             28358.86,2341.45 28335.68,2261.89 28326.85,2188.00
             28324.51,2168.49 28322.03,2148.66 28322.00,2129.00
             28322.00,2129.00 28321.00,2112.00 28321.00,2112.00
             28321.00,2112.00 28321.00,2070.00 28321.00,2070.00
             28321.00,2070.00 28322.00,2057.00 28322.00,2057.00
             28322.00,2057.00 28325.84,2005.00 28325.84,2005.00
             28334.80,1921.20 28359.20,1841.16 28399.31,1767.00
             28424.02,1721.31 28456.58,1676.99 28491.91,1639.00
             28581.53,1542.64 28691.37,1473.43 28819.00,1439.88
             28853.54,1430.81 28888.55,1424.08 28924.00,1419.85
             28924.00,1419.85 28966.00,1415.91 28966.00,1415.91
             28966.00,1415.91 28977.00,1415.00 28977.00,1415.00
             28977.00,1415.00 28995.00,1414.00 28995.00,1414.00
             28995.00,1414.00 29024.00,1413.42 29024.00,1413.42 Z
           M 2609.00,1416.00
           C 2609.00,1416.00 2872.00,1416.00 2872.00,1416.00
             2872.00,1416.00 2872.00,2210.00 2872.00,2210.00
             2872.00,2210.00 2873.00,2227.00 2873.00,2227.00
             2873.00,2227.00 2875.83,2272.00 2875.83,2272.00
             2883.98,2356.14 2899.78,2454.59 2975.00,2505.97
             3026.23,2540.97 3092.64,2547.70 3153.00,2547.00
             3153.00,2547.00 3163.00,2546.09 3163.00,2546.09
             3163.00,2546.09 3192.00,2543.27 3192.00,2543.27
             3266.39,2532.55 3328.61,2498.94 3384.00,2448.83
             3384.00,2448.83 3402.00,2431.00 3402.00,2431.00
             3417.14,2415.86 3430.70,2399.76 3444.00,2383.00
             3447.05,2379.14 3455.94,2368.04 3457.30,2364.00
             3458.13,2361.55 3458.00,2358.58 3458.00,2356.00
             3458.00,2356.00 3458.00,1416.00 3458.00,1416.00
             3458.00,1416.00 3722.00,1416.00 3722.00,1416.00
             3722.00,1416.00 3722.00,2742.00 3722.00,2742.00
             3722.00,2742.00 3458.00,2742.00 3458.00,2742.00
             3458.00,2742.00 3458.00,2576.00 3458.00,2576.00
             3458.00,2576.00 3439.96,2594.96 3439.96,2594.96
             3439.96,2594.96 3431.00,2603.04 3431.00,2603.04
             3431.00,2603.04 3396.00,2634.57 3396.00,2634.57
             3364.29,2660.95 3330.23,2683.10 3294.00,2702.69
             3239.34,2732.25 3166.98,2756.63 3105.00,2762.83
             3105.00,2762.83 3066.00,2765.00 3066.00,2765.00
             3066.00,2765.00 3054.00,2765.82 3054.00,2765.82
             3054.00,2765.82 3046.00,2765.02 3046.00,2765.02
             3046.00,2765.02 3028.00,2765.02 3028.00,2765.02
             3028.00,2765.02 3018.00,2764.09 3018.00,2764.09
             2998.89,2762.75 2979.81,2760.31 2961.00,2756.55
             2918.55,2748.06 2878.21,2732.95 2840.00,2712.78
             2800.08,2691.71 2766.92,2666.92 2735.00,2635.00
             2699.19,2599.19 2667.32,2550.46 2649.42,2503.00
             2631.84,2456.37 2621.79,2398.60 2616.83,2349.00
             2616.83,2349.00 2613.00,2312.00 2613.00,2312.00
             2613.00,2312.00 2613.00,2303.00 2613.00,2303.00
             2613.00,2303.00 2611.91,2289.00 2611.91,2289.00
             2611.91,2289.00 2611.00,2279.00 2611.00,2279.00
             2611.00,2279.00 2610.00,2248.00 2610.00,2248.00
             2610.00,2248.00 2609.00,2231.00 2609.00,2231.00
             2609.00,2231.00 2609.00,2076.00 2609.00,2076.00
             2609.00,2076.00 2609.00,1416.00 2609.00,1416.00 Z
           M 7800.00,1416.00
           C 7800.00,1416.00 8063.00,1416.00 8063.00,1416.00
             8063.00,1416.00 8063.00,2210.00 8063.00,2210.00
             8063.00,2210.00 8064.00,2227.00 8064.00,2227.00
             8064.00,2227.00 8066.83,2272.00 8066.83,2272.00
             8074.98,2356.14 8090.78,2454.59 8166.00,2505.97
             8217.23,2540.97 8283.64,2547.70 8344.00,2547.00
             8344.00,2547.00 8354.00,2546.09 8354.00,2546.09
             8354.00,2546.09 8383.00,2543.27 8383.00,2543.27
             8457.39,2532.55 8519.61,2498.94 8575.00,2448.83
             8575.00,2448.83 8593.00,2431.00 8593.00,2431.00
             8608.14,2415.86 8621.70,2399.76 8635.00,2383.00
             8638.05,2379.14 8646.94,2368.04 8648.30,2364.00
             8649.13,2361.55 8649.00,2358.58 8649.00,2356.00
             8649.00,2356.00 8649.00,1416.00 8649.00,1416.00
             8649.00,1416.00 8913.00,1416.00 8913.00,1416.00
             8913.00,1416.00 8913.00,2742.00 8913.00,2742.00
             8913.00,2742.00 8649.00,2742.00 8649.00,2742.00
             8649.00,2742.00 8649.00,2576.00 8649.00,2576.00
             8649.00,2576.00 8630.96,2594.96 8630.96,2594.96
             8630.96,2594.96 8622.00,2603.04 8622.00,2603.04
             8622.00,2603.04 8587.00,2634.57 8587.00,2634.57
             8555.29,2660.95 8521.23,2683.10 8485.00,2702.69
             8430.34,2732.25 8357.98,2756.63 8296.00,2762.83
             8296.00,2762.83 8257.00,2765.00 8257.00,2765.00
             8257.00,2765.00 8245.00,2765.82 8245.00,2765.82
             8245.00,2765.82 8237.00,2765.02 8237.00,2765.02
             8237.00,2765.02 8219.00,2765.02 8219.00,2765.02
             8219.00,2765.02 8209.00,2764.09 8209.00,2764.09
             8189.89,2762.75 8170.81,2760.31 8152.00,2756.55
             8109.55,2748.06 8069.21,2732.95 8031.00,2712.78
             7991.08,2691.71 7957.92,2666.92 7926.00,2635.00
             7890.19,2599.19 7858.32,2550.46 7840.42,2503.00
             7822.84,2456.37 7812.79,2398.60 7807.83,2349.00
             7807.83,2349.00 7804.00,2312.00 7804.00,2312.00
             7804.00,2312.00 7804.00,2303.00 7804.00,2303.00
             7804.00,2303.00 7802.91,2289.00 7802.91,2289.00
             7802.91,2289.00 7802.00,2279.00 7802.00,2279.00
             7802.00,2279.00 7801.00,2248.00 7801.00,2248.00
             7801.00,2248.00 7800.00,2231.00 7800.00,2231.00
             7800.00,2231.00 7800.00,2076.00 7800.00,2076.00
             7800.00,2076.00 7800.00,1416.00 7800.00,1416.00 Z
           M 13863.00,1416.00
           C 13863.00,1416.00 14126.00,1416.00 14126.00,1416.00
             14126.00,1416.00 14126.00,2742.00 14126.00,2742.00
             14126.00,2742.00 13863.00,2742.00 13863.00,2742.00
             13863.00,2742.00 13863.00,1416.00 13863.00,1416.00 Z
           M 25288.00,1416.00
           C 25288.00,1416.00 25551.00,1416.00 25551.00,1416.00
             25551.00,1416.00 25551.00,2210.00 25551.00,2210.00
             25551.00,2210.00 25552.00,2227.00 25552.00,2227.00
             25552.00,2227.00 25554.83,2272.00 25554.83,2272.00
             25562.98,2356.14 25578.78,2454.59 25654.00,2505.97
             25705.23,2540.97 25771.64,2547.70 25832.00,2547.00
             25832.00,2547.00 25842.00,2546.09 25842.00,2546.09
             25842.00,2546.09 25871.00,2543.27 25871.00,2543.27
             25945.39,2532.55 26007.61,2498.94 26063.00,2448.83
             26063.00,2448.83 26081.00,2431.00 26081.00,2431.00
             26096.14,2415.86 26109.70,2399.76 26123.00,2383.00
             26126.05,2379.14 26134.94,2368.04 26136.30,2364.00
             26137.13,2361.55 26137.00,2358.58 26137.00,2356.00
             26137.00,2356.00 26137.00,1416.00 26137.00,1416.00
             26137.00,1416.00 26401.00,1416.00 26401.00,1416.00
             26401.00,1416.00 26401.00,2742.00 26401.00,2742.00
             26401.00,2742.00 26137.00,2742.00 26137.00,2742.00
             26137.00,2742.00 26137.00,2576.00 26137.00,2576.00
             26137.00,2576.00 26118.96,2594.96 26118.96,2594.96
             26118.96,2594.96 26110.00,2603.04 26110.00,2603.04
             26110.00,2603.04 26075.00,2634.57 26075.00,2634.57
             26043.29,2660.95 26009.23,2683.10 25973.00,2702.69
             25918.34,2732.25 25845.98,2756.63 25784.00,2762.83
             25784.00,2762.83 25745.00,2765.00 25745.00,2765.00
             25745.00,2765.00 25733.00,2765.82 25733.00,2765.82
             25733.00,2765.82 25725.00,2765.02 25725.00,2765.02
             25725.00,2765.02 25707.00,2765.02 25707.00,2765.02
             25707.00,2765.02 25697.00,2764.09 25697.00,2764.09
             25677.89,2762.75 25658.81,2760.31 25640.00,2756.55
             25597.55,2748.06 25557.21,2732.95 25519.00,2712.78
             25479.08,2691.71 25445.92,2666.92 25414.00,2635.00
             25378.19,2599.19 25346.32,2550.46 25328.42,2503.00
             25310.84,2456.37 25300.79,2398.60 25295.83,2349.00
             25295.83,2349.00 25292.00,2312.00 25292.00,2312.00
             25292.00,2312.00 25292.00,2303.00 25292.00,2303.00
             25292.00,2303.00 25290.91,2289.00 25290.91,2289.00
             25290.91,2289.00 25290.00,2279.00 25290.00,2279.00
             25290.00,2279.00 25289.00,2248.00 25289.00,2248.00
             25289.00,2248.00 25288.00,2231.00 25288.00,2231.00
             25288.00,2231.00 25288.00,2076.00 25288.00,2076.00
             25288.00,2076.00 25288.00,1416.00 25288.00,1416.00 Z
           M 27756.00,1416.00
           C 27756.00,1416.00 28019.00,1416.00 28019.00,1416.00
             28019.00,1416.00 28019.00,2742.00 28019.00,2742.00
             28019.00,2742.00 27756.00,2742.00 27756.00,2742.00
             27756.00,2742.00 27756.00,1416.00 27756.00,1416.00 Z
           M 16864.00,2517.00
           C 16864.00,2517.00 16864.00,1686.00 16864.00,1686.00
             16864.00,1684.14 16864.12,1680.87 16863.40,1679.21
             16861.85,1675.63 16851.71,1671.60 16848.00,1670.00
             16848.00,1670.00 16806.00,1652.19 16806.00,1652.19
             16771.43,1638.80 16735.58,1628.98 16699.00,1622.92
             16699.00,1622.92 16657.00,1617.91 16657.00,1617.91
             16657.00,1617.91 16647.00,1617.00 16647.00,1617.00
             16647.00,1617.00 16628.00,1616.00 16628.00,1616.00
             16628.00,1616.00 16602.00,1616.00 16602.00,1616.00
             16602.00,1616.00 16583.00,1617.00 16583.00,1617.00
             16583.00,1617.00 16573.00,1617.91 16573.00,1617.91
             16540.97,1620.15 16508.75,1625.52 16478.00,1634.98
             16442.28,1645.96 16411.53,1659.39 16380.00,1679.69
             16355.50,1695.47 16326.90,1719.21 16307.72,1741.00
             16282.59,1769.55 16265.46,1792.43 16247.31,1826.00
             16219.81,1876.85 16201.70,1940.66 16194.85,1998.00
             16194.85,1998.00 16190.91,2040.00 16190.91,2040.00
             16190.91,2040.00 16189.96,2050.00 16189.96,2050.00
             16189.96,2050.00 16189.96,2063.00 16189.96,2063.00
             16189.96,2063.00 16189.00,2075.00 16189.00,2075.00
             16189.00,2075.00 16189.00,2104.00 16189.00,2104.00
             16189.00,2104.00 16189.96,2116.00 16189.96,2116.00
             16189.96,2116.00 16189.96,2129.00 16189.96,2129.00
             16189.96,2129.00 16190.91,2139.00 16190.91,2139.00
             16190.91,2139.00 16194.85,2181.00 16194.85,2181.00
             16203.94,2257.09 16230.68,2333.29 16279.61,2393.00
             16310.08,2430.18 16354.48,2467.52 16399.00,2486.57
             16438.56,2503.50 16483.38,2509.11 16526.00,2512.09
             16526.00,2512.09 16575.00,2515.00 16575.00,2515.00
             16575.00,2515.00 16592.00,2516.00 16592.00,2516.00
             16592.00,2516.00 16614.00,2516.00 16614.00,2516.00
             16614.00,2516.00 16631.00,2517.00 16631.00,2517.00
             16631.00,2517.00 16864.00,2517.00 16864.00,2517.00 Z
           M 23609.00,1651.14
           C 23609.00,1651.14 23597.00,1652.09 23597.00,1652.09
             23597.00,1652.09 23575.00,1654.28 23575.00,1654.28
             23548.32,1657.61 23521.68,1663.04 23496.00,1671.02
             23402.89,1699.97 23320.59,1765.43 23270.45,1849.00
             23239.13,1901.20 23220.58,1956.73 23212.72,2017.00
             23212.72,2017.00 23209.00,2059.00 23209.00,2059.00
             23209.00,2059.00 23208.00,2074.00 23208.00,2074.00
             23208.00,2074.00 23208.00,2105.00 23208.00,2105.00
             23208.00,2105.00 23209.00,2124.00 23209.00,2124.00
             23209.15,2136.59 23212.60,2161.10 23214.75,2174.00
             23221.86,2216.64 23235.70,2261.90 23256.31,2300.00
             23307.25,2394.20 23389.68,2462.23 23491.00,2496.00
             23528.76,2508.58 23568.40,2515.37 23608.00,2518.09
             23608.00,2518.09 23618.00,2519.00 23618.00,2519.00
             23618.00,2519.00 23658.00,2520.00 23658.00,2520.00
             23658.00,2520.00 23671.00,2519.00 23671.00,2519.00
             23752.76,2518.05 23840.49,2492.50 23908.00,2445.98
             23967.87,2404.71 24018.26,2347.27 24048.69,2281.00
             24066.52,2242.18 24077.19,2204.21 24083.27,2162.00
             24083.27,2162.00 24087.09,2125.00 24087.09,2125.00
             24087.09,2125.00 24088.00,2113.00 24088.00,2113.00
             24088.00,2113.00 24088.00,2100.00 24088.00,2100.00
             24088.00,2100.00 24088.99,2087.00 24088.99,2087.00
             24088.99,2087.00 24088.02,2076.00 24088.02,2076.00
             24088.02,2076.00 24088.02,2059.00 24088.02,2059.00
             24088.02,2059.00 24087.09,2049.00 24087.09,2049.00
             24087.09,2049.00 24083.27,2013.00 24083.27,2013.00
             24074.58,1952.74 24054.31,1898.21 24021.31,1847.00
             24005.57,1822.57 23986.49,1800.49 23966.00,1780.00
             23899.70,1713.70 23818.71,1671.97 23726.00,1657.58
             23726.00,1657.58 23681.00,1652.00 23681.00,1652.00
             23681.00,1652.00 23673.00,1652.00 23673.00,1652.00
             23673.00,1652.00 23661.00,1651.14 23661.00,1651.14
             23661.00,1651.14 23609.00,1651.14 23609.00,1651.14 Z
           M 28988.00,1651.14
           C 28988.00,1651.14 28976.00,1652.09 28976.00,1652.09
             28976.00,1652.09 28954.00,1654.28 28954.00,1654.28
             28927.32,1657.61 28900.68,1663.04 28875.00,1671.02
             28781.89,1699.97 28699.59,1765.43 28649.45,1849.00
             28618.13,1901.20 28599.58,1956.73 28591.72,2017.00
             28591.72,2017.00 28588.00,2059.00 28588.00,2059.00
             28588.00,2059.00 28587.00,2074.00 28587.00,2074.00
             28587.00,2074.00 28587.00,2105.00 28587.00,2105.00
             28587.00,2105.00 28588.00,2124.00 28588.00,2124.00
             28588.15,2136.59 28591.60,2161.10 28593.75,2174.00
             28600.86,2216.64 28614.70,2261.90 28635.31,2300.00
             28686.25,2394.20 28768.68,2462.23 28870.00,2496.00
             28907.76,2508.58 28947.40,2515.37 28987.00,2518.09
             28987.00,2518.09 28997.00,2519.00 28997.00,2519.00
             28997.00,2519.00 29037.00,2520.00 29037.00,2520.00
             29037.00,2520.00 29050.00,2519.00 29050.00,2519.00
             29131.76,2518.05 29219.49,2492.50 29287.00,2445.98
             29346.76,2404.79 29397.32,2347.15 29427.69,2281.00
             29445.52,2242.18 29456.19,2204.21 29462.27,2162.00
             29462.27,2162.00 29466.09,2125.00 29466.09,2125.00
             29466.09,2125.00 29467.00,2113.00 29467.00,2113.00
             29467.00,2113.00 29467.00,2100.00 29467.00,2100.00
             29467.00,2100.00 29467.99,2087.00 29467.99,2087.00
             29467.99,2087.00 29467.02,2076.00 29467.02,2076.00
             29467.02,2076.00 29467.02,2059.00 29467.02,2059.00
             29467.02,2059.00 29466.09,2049.00 29466.09,2049.00
             29466.09,2049.00 29462.27,2013.00 29462.27,2013.00
             29453.58,1952.74 29433.31,1898.21 29400.31,1847.00
             29384.57,1822.57 29365.49,1800.49 29345.00,1780.00
             29278.70,1713.70 29197.71,1671.97 29105.00,1657.58
             29105.00,1657.58 29060.00,1652.00 29060.00,1652.00
             29060.00,1652.00 29052.00,1652.00 29052.00,1652.00
             29052.00,1652.00 29040.00,1651.14 29040.00,1651.14
             29040.00,1651.14 28988.00,1651.14 28988.00,1651.14 Z
           M 20646.00,1948.00
           C 20646.00,1948.00 21364.00,1948.00 21364.00,1948.00
             21364.00,1948.00 21364.00,2230.00 21364.00,2230.00
             21364.00,2230.00 20646.00,2230.00 20646.00,2230.00
             20646.00,2230.00 20646.00,1948.00 20646.00,1948.00 Z
           M 4664.00,2088.00
           C 4664.00,2088.00 4627.00,2101.58 4627.00,2101.58
             4627.00,2101.58 4551.00,2130.80 4551.00,2130.80
             4484.50,2156.93 4418.06,2180.57 4357.00,2218.58
             4326.78,2237.39 4294.86,2260.95 4275.08,2291.00
             4256.44,2319.32 4245.39,2351.97 4245.00,2386.00
             4245.00,2386.00 4244.18,2395.00 4244.18,2395.00
             4244.18,2395.00 4245.00,2412.00 4245.00,2412.00
             4245.36,2442.23 4258.07,2479.18 4275.03,2504.00
             4296.52,2535.47 4325.52,2556.99 4361.00,2570.19
             4378.42,2576.67 4401.43,2580.79 4420.00,2581.00
             4420.00,2581.00 4434.00,2582.00 4434.00,2582.00
             4434.00,2582.00 4448.00,2581.00 4448.00,2581.00
             4506.02,2580.32 4568.33,2553.98 4615.00,2520.71
             4626.73,2512.35 4641.40,2500.68 4652.00,2491.00
             4659.97,2483.72 4663.98,2483.31 4664.00,2472.00
             4664.00,2472.00 4664.00,2088.00 4664.00,2088.00 Z" />
</svg>
