<svg width="200" height="150" xmlns="http://www.w3.org/2000/svg" viewBox="-513.3199951171874 1.9800048828124943 1526.6399902343749 146.039990234375" style="background: none;" preserveAspectRatio="xMidYMid"><defs><filter id="editing-hole" x="-100%" y="-100%" width="300%" height="300%"><feFlood flood-color="#000" result="black"></feFlood><feMorphology operator="dilate" radius="2" in="SourceGraphic" result="erode"></feMorphology><feGaussianBlur in="erode" stdDeviation="4" result="blur"></feGaussianBlur><feOffset in="blur" dx="2" dy="2" result="offset"></feOffset><feComposite operator="atop" in="offset" in2="black" result="merge"></feComposite><feComposite operator="in" in="merge" in2="SourceGraphic" result="inner-shadow"></feComposite></filter></defs><g filter="url(#editing-hole)"><g transform="translate(-303.0300307273865, 100.06500053405762)"><path d="M44.06-49L26-49L26-49Q20.50-49 16.73-48.33L16.73-48.33L16.73-48.33Q12.97-47.66 10.53-46.30L10.53-46.30L10.53-46.30Q8.09-44.94 6.77-42.88L6.77-42.88L6.77-42.88Q5.44-40.81 4.83-38.03L4.83-38.03L4.83-38.03Q4.22-35.25 4.13-31.75L4.13-31.75L4.13-31.75Q4.03-28.25 4.03-24L4.03-24L4.03-24Q4.03-19.75 4.13-16.25L4.13-16.25L4.13-16.25Q4.22-12.75 4.83-9.97L4.83-9.97L4.83-9.97Q5.44-7.19 6.77-5.13L6.77-5.13L6.77-5.13Q8.09-3.06 10.53-1.70L10.53-1.70L10.53-1.70Q12.97-0.34 16.73 0.33L16.73 0.33L16.73 0.33Q20.50 1 26 1L26 1L44.06 1L44.06 1Q49.56 1 53.33 0.33L53.33 0.33L53.33 0.33Q57.09-0.34 59.53-1.70L59.53-1.70L59.53-1.70Q61.97-3.06 63.28-5.13L63.28-5.13L63.28-5.13Q63.34-5.22 63.38-5.31L63.38-5.31L67-3L69.50-7L65.16-9.78L65.16-9.78Q65.19-9.88 65.19-9.97L65.19-9.97L65.19-9.97Q65.81-12.75 65.92-16.25L65.92-16.25L65.92-16.25Q66.03-19.75 66.03-24L66.03-24L66.03-24Q66.03-28.25 65.92-31.75L65.92-31.75L65.92-31.75Q65.81-35.25 65.20-38.03L65.20-38.03L65.20-38.03Q64.59-40.81 63.28-42.88L63.28-42.88L63.28-42.88Q61.97-44.94 59.53-46.30L59.53-46.30L59.53-46.30Q57.09-47.66 53.33-48.33L53.33-48.33L53.33-48.33Q49.56-49 44.06-49L44.06-49ZM44.06-4L26-4L26-4Q22-4 19.27-4.23L19.27-4.23L19.27-4.23Q16.53-4.47 14.75-5.19L14.75-5.19L14.75-5.19Q12.97-5.91 12.02-7.25L12.02-7.25L12.02-7.25Q11.06-8.59 10.63-10.81L10.63-10.81L10.63-10.81Q10.19-13.03 10.11-16.27L10.11-16.27L10.11-16.27Q10.03-19.50 10.03-24L10.03-24L10.03-24Q10.03-28.50 10.09-31.73L10.09-31.73L10.09-31.73Q10.16-34.97 10.59-37.19L10.59-37.19L10.59-37.19Q11.03-39.41 12-40.75L12-40.75L12-40.75Q12.97-42.09 14.75-42.81L14.75-42.81L14.75-42.81Q16.53-43.53 19.27-43.77L19.27-43.77L19.27-43.77Q22-44 26-44L26-44L44.06-44L44.06-44Q48.06-44 50.80-43.77L50.80-43.77L50.80-43.77Q53.53-43.53 55.30-42.81L55.30-42.81L55.30-42.81Q57.06-42.09 58.03-40.75L58.03-40.75L58.03-40.75Q59-39.41 59.44-37.19L59.44-37.19L59.44-37.19Q59.88-34.97 59.95-31.73L59.95-31.73L59.95-31.73Q60.03-28.50 60.03-24L60.03-24L60.03-24Q60.03-19.50 59.94-16.25L59.94-16.25L59.94-16.25Q59.91-14.63 59.78-13.25L59.78-13.25L41.50-25L38.97-20.97L58.66-8.34L58.66-8.34Q58.38-7.72 58.03-7.25L58.03-7.25L58.03-7.25Q57.06-5.91 55.28-5.19L55.28-5.19L55.28-5.19Q53.50-4.47 50.77-4.23L50.77-4.23L50.77-4.23Q48.03-4 44.06-4L44.06-4ZM77.53-36L83.53-36L83.53-16L83.53-16Q83.53-12.66 84.03-10.36L84.03-10.36L84.03-10.36Q84.53-8.06 86.03-6.66L86.03-6.66L86.03-6.66Q87.53-5.25 90.28-4.63L90.28-4.63L90.28-4.63Q93.03-4 97.53-4L97.53-4L97.53-4Q102.41-4 105.52-4.72L105.52-4.72L105.52-4.72Q108.63-5.44 110.41-6.75L110.41-6.75L110.41-6.75Q112.19-8.06 112.86-9.91L112.86-9.91L112.86-9.91Q113.53-11.75 113.53-14L113.53-14L113.53-36L119.53-36L119.53 0L113.53 0L113.53-6L113.53-6Q113.09-5.03 112.06-3.86L112.06-3.86L112.06-3.86Q111.03-2.69 108.97-1.69L108.97-1.69L108.97-1.69Q106.91-0.69 103.64 0L103.64 0L103.64 0Q100.38 0.69 95.53 0.69L95.53 0.69L95.53 0.69Q91.50 0.69 88.61 0.20L88.61 0.20L88.61 0.20Q85.72-0.28 83.70-1.23L83.70-1.23L83.70-1.23Q81.69-2.19 80.47-3.59L80.47-3.59L80.47-3.59Q79.25-5 78.59-6.86L78.59-6.86L78.59-6.86Q77.94-8.72 77.72-11L77.72-11L77.72-11Q77.50-13.28 77.50-16L77.50-16L77.53-36ZM163.38 0L163.38-4.94L163.38-4.94Q163.28-4.56 161.97-3.06L161.97-3.06L161.97-3.06Q161.03-1.94 159.47-1.08L159.47-1.08L159.47-1.08Q157.91-0.22 155.30 0.27L155.30 0.27L155.30 0.27Q152.69 0.75 148.44 0.75L148.44 0.75L148.44 0.75Q142.78 0.75 138.78 0.17L138.78 0.17L138.78 0.17Q134.78-0.41 132.25-1.61L132.25-1.61L132.25-1.61Q129.72-2.81 128.55-4.69L128.55-4.69L128.55-4.69Q127.38-6.56 127.38-9.16L127.38-9.16L127.38-9.16Q127.38-11.88 128.02-13.77L128.02-13.77L128.02-13.77Q128.66-15.66 129.89-16.94L129.89-16.94L129.89-16.94Q131.13-18.22 132.88-18.94L132.88-18.94L132.88-18.94Q134.63-19.66 136.86-20.03L136.86-20.03L136.86-20.03Q139.09-20.41 141.75-20.50L141.75-20.50L141.75-20.50Q144.41-20.59 147.41-20.59L147.41-20.59L147.41-20.59Q151.69-20.59 154.56-20.23L154.56-20.23L154.56-20.23Q157.44-19.88 159.27-19.33L159.27-19.33L159.27-19.33Q161.09-18.78 162.03-18.16L162.03-18.16L162.03-18.16Q162.97-17.53 163.38-17L163.38-17L163.38-17Q163.38-20.50 163.08-22.97L163.08-22.97L163.08-22.97Q162.78-25.44 162.11-27.09L162.11-27.09L162.11-27.09Q161.44-28.75 160.38-29.73L160.38-29.73L160.38-29.73Q159.31-30.72 157.77-31.22L157.77-31.22L157.77-31.22Q156.22-31.72 154.16-31.86L154.16-31.86L154.16-31.86Q152.09-32 149.44-32L149.44-32L149.44-32Q145.31-32 142.59-31.80L142.59-31.80L142.59-31.80Q139.88-31.59 138.28-31L138.28-31L138.28-31Q136.69-30.41 136.03-29.36L136.03-29.36L136.03-29.36Q135.38-28.31 135.38-26.63L135.38-26.63L129.38-26.63L129.38-26.63Q129.38-29.47 130.39-31.44L130.39-31.44L130.39-31.44Q131.41-33.41 133.77-34.64L133.77-34.64L133.77-34.64Q136.13-35.88 139.97-36.44L139.97-36.44L139.97-36.44Q143.81-37 149.44-37L149.44-37L149.44-37Q154.94-37 158.75-36.09L158.75-36.09L158.75-36.09Q162.56-35.19 164.92-32.91L164.92-32.91L164.92-32.91Q167.28-30.63 168.33-26.77L168.33-26.77L168.33-26.77Q169.38-22.91 169.38-17L169.38-17L169.38 0L163.38 0ZM149.44-4L149.44-4L149.44-4Q153.41-4 156.08-4.38L156.08-4.38L156.08-4.38Q158.75-4.75 160.38-5.50L160.38-5.50L160.38-5.50Q162-6.25 162.69-7.38L162.69-7.38L162.69-7.38Q163.38-8.50 163.38-10L163.38-10L163.38-10Q163.38-11.50 162.58-12.55L162.58-12.55L162.58-12.55Q161.78-13.59 159.92-14.25L159.92-14.25L159.92-14.25Q158.06-14.91 155-15.20L155-15.20L155-15.20Q151.94-15.50 147.44-15.50L147.44-15.50L147.44-15.50Q142.94-15.50 140.17-15.34L140.17-15.34L140.17-15.34Q137.41-15.19 135.91-14.63L135.91-14.63L135.91-14.63Q134.41-14.06 133.89-12.97L133.89-12.97L133.89-12.97Q133.38-11.88 133.38-10L133.38-10L133.38-10Q133.38-8.13 133.92-6.95L133.92-6.95L133.92-6.95Q134.47-5.78 136.16-5.13L136.16-5.13L136.16-5.13Q137.84-4.47 141.02-4.23L141.02-4.23L141.02-4.23Q144.19-4 149.44-4ZM219.38 0L213.38 0L213.38-20L213.38-20Q213.38-23.34 212.88-25.64L212.88-25.64L212.88-25.64Q212.38-27.94 210.88-29.34L210.88-29.34L210.88-29.34Q209.38-30.75 206.63-31.38L206.63-31.38L206.63-31.38Q203.88-32 199.38-32L199.38-32L199.38-32Q194.50-32 191.39-31.28L191.39-31.28L191.39-31.28Q188.28-30.56 186.50-29.25L186.50-29.25L186.50-29.25Q184.72-27.94 184.05-26.09L184.05-26.09L184.05-26.09Q183.38-24.25 183.38-22L183.38-22L183.38 0L177.38 0L177.38-36L183.38-36L183.38-30L183.38-30Q184.03-31.53 185.25-32.64L185.25-32.64L185.25-32.64Q186.47-33.75 188-34.53L188-34.53L188-34.53Q189.53-35.31 191.31-35.80L191.31-35.80L191.31-35.80Q193.09-36.28 194.88-36.55L194.88-36.55L194.88-36.55Q196.66-36.81 198.33-36.91L198.33-36.91L198.33-36.91Q200-37 201.38-37L201.38-37L201.38-37Q205.38-37 208.27-36.50L208.27-36.50L208.27-36.50Q211.16-36 213.17-35.03L213.17-35.03L213.17-35.03Q215.19-34.06 216.41-32.63L216.41-32.63L216.41-32.63Q217.63-31.19 218.30-29.30L218.30-29.30L218.30-29.30Q218.97-27.41 219.19-25.08L219.19-25.08L219.19-25.08Q219.41-22.75 219.41-20L219.41-20L219.38 0ZM257.41-16L262.41-16L262.41-16Q262.41-11.41 261.66-8.33L261.66-8.33L261.66-8.33Q260.91-5.25 259.14-3.41L259.14-3.41L259.14-3.41Q257.38-1.56 254.50-0.78L254.50-0.78L254.50-0.78Q251.63 0 247.41 0L247.41 0L247.41 0Q243.31 0 240.53-0.63L240.53-0.63L240.53-0.63Q237.75-1.25 236.03-2.75L236.03-2.75L236.03-2.75Q234.31-4.25 233.56-6.75L233.56-6.75L233.56-6.75Q232.81-9.25 232.81-13L232.81-13L232.81-31.06L225.41-31.06L225.41-36L232.81-36L232.81-45.84L238.81-45.84L238.81-36L261.41-36L261.41-31.06L238.81-31.06L238.81-13L238.81-13Q238.81-10 239.27-8.38L239.27-8.38L239.27-8.38Q239.72-6.75 240.72-6L240.72-6L240.72-6Q241.72-5.25 243.36-5.13L243.36-5.13L243.36-5.13Q245-5 247.38-5L247.38-5L247.38-5Q249.25-5 250.73-5.06L250.73-5.06L250.73-5.06Q252.22-5.13 253.33-5.45L253.33-5.45L253.33-5.45Q254.44-5.78 255.22-6.45L255.22-6.45L255.22-6.45Q256-7.13 256.48-8.34L256.48-8.34L256.48-8.34Q256.97-9.56 257.19-11.42L257.19-11.42L257.19-11.42Q257.41-13.28 257.41-16L257.41-16ZM270.44-36L276.44-36L276.44-16L276.44-16Q276.44-12.66 276.94-10.36L276.94-10.36L276.94-10.36Q277.44-8.06 278.94-6.66L278.94-6.66L278.94-6.66Q280.44-5.25 283.19-4.63L283.19-4.63L283.19-4.63Q285.94-4 290.44-4L290.44-4L290.44-4Q295.31-4 298.42-4.72L298.42-4.72L298.42-4.72Q301.53-5.44 303.31-6.75L303.31-6.75L303.31-6.75Q305.09-8.06 305.77-9.91L305.77-9.91L305.77-9.91Q306.44-11.75 306.44-14L306.44-14L306.44-36L312.44-36L312.44 0L306.44 0L306.44-6L306.44-6Q306-5.03 304.97-3.86L304.97-3.86L304.97-3.86Q303.94-2.69 301.88-1.69L301.88-1.69L301.88-1.69Q299.81-0.69 296.55 0L296.55 0L296.55 0Q293.28 0.69 288.44 0.69L288.44 0.69L288.44 0.69Q284.41 0.69 281.52 0.20L281.52 0.20L281.52 0.20Q278.63-0.28 276.61-1.23L276.61-1.23L276.61-1.23Q274.59-2.19 273.38-3.59L273.38-3.59L273.38-3.59Q272.16-5 271.50-6.86L271.50-6.86L271.50-6.86Q270.84-8.72 270.63-11L270.63-11L270.63-11Q270.41-13.28 270.41-16L270.41-16L270.44-36ZM358.44-22.31L358.44 0L352.44 0L352.44-20.31L352.44-20.31Q352.44-23.56 352.02-25.80L352.02-25.80L352.02-25.80Q351.59-28.03 350.30-29.41L350.30-29.41L350.30-29.41Q349-30.78 346.64-31.39L346.64-31.39L346.64-31.39Q344.28-32 340.44-32L340.44-32L340.44-32Q336.22-32 333.50-31.30L333.50-31.30L333.50-31.30Q330.78-30.59 329.22-29.33L329.22-29.33L329.22-29.33Q327.66-28.06 327.05-26.28L327.05-26.28L327.05-26.28Q326.44-24.50 326.44-22.31L326.44-22.31L326.44 0L320.44 0L320.44-36L326.44-36L326.44-30.31L326.44-30.31Q326.47-30.41 326.72-30.94L326.72-30.94L326.72-30.94Q326.97-31.47 327.61-32.20L327.61-32.20L327.61-32.20Q328.25-32.94 329.36-33.78L329.36-33.78L329.36-33.78Q330.47-34.63 332.23-35.34L332.23-35.34L332.23-35.34Q334-36.06 336.50-36.53L336.50-36.53L336.50-36.53Q339-37 342.44-37L342.44-37L342.44-37Q345.81-37 348.30-36.58L348.30-36.58L348.30-36.58Q350.78-36.16 352.55-35.33L352.55-35.33L352.55-35.33Q354.31-34.50 355.42-33.27L355.42-33.27L355.42-33.27Q356.53-32.03 357.19-30.44L357.19-30.44L357.19-30.44Q357.72-31.28 358.84-32.41L358.84-32.41L358.84-32.41Q359.97-33.53 361.98-34.56L361.98-34.56L361.98-34.56Q364-35.59 367.03-36.30L367.03-36.30L367.03-36.30Q370.06-37 374.44-37L374.44-37L374.44-37Q378.03-37 380.61-36.52L380.61-36.52L380.61-36.52Q383.19-36.03 384.97-35.08L384.97-35.08L384.97-35.08Q386.75-34.13 387.83-32.72L387.83-32.72L387.83-32.72Q388.91-31.31 389.48-29.45L389.48-29.45L389.48-29.45Q390.06-27.59 390.25-25.30L390.25-25.30L390.25-25.30Q390.44-23 390.44-20.31L390.44-20.31L390.44 0L384.44 0L384.44-20.31L384.44-20.31Q384.44-23.56 384.02-25.80L384.02-25.80L384.02-25.80Q383.59-28.03 382.30-29.41L382.30-29.41L382.30-29.41Q381-30.78 378.64-31.39L378.64-31.39L378.64-31.39Q376.28-32 372.44-32L372.44-32L372.44-32Q368.22-32 365.50-31.30L365.50-31.30L365.50-31.30Q362.78-30.59 361.22-29.33L361.22-29.33L361.22-29.33Q359.66-28.06 359.05-26.28L359.05-26.28L359.05-26.28Q358.44-24.50 358.44-22.31L358.44-22.31ZM435.38 0L406.44-44L406.44 0L400.44 0L400.44-48L410.44-48L438.41-6L466.38-48L475.94-48L475.94 0L469.94 0L469.94-43.34L441.44 0L435.38 0ZM487.94 0L487.94-36L493.94-36L493.94 0L487.94 0ZM493.94-48L493.94-42L487.94-42L487.94-48L493.94-48ZM545.94 0L539.94 0L539.94-20L539.94-20Q539.94-23.34 539.44-25.64L539.44-25.64L539.44-25.64Q538.94-27.94 537.44-29.34L537.44-29.34L537.44-29.34Q535.94-30.75 533.19-31.38L533.19-31.38L533.19-31.38Q530.44-32 525.94-32L525.94-32L525.94-32Q521.06-32 517.95-31.28L517.95-31.28L517.95-31.28Q514.84-30.56 513.06-29.25L513.06-29.25L513.06-29.25Q511.28-27.94 510.61-26.09L510.61-26.09L510.61-26.09Q509.94-24.25 509.94-22L509.94-22L509.94 0L503.94 0L503.94-36L509.94-36L509.94-30L509.94-30Q510.59-31.53 511.81-32.64L511.81-32.64L511.81-32.64Q513.03-33.75 514.56-34.53L514.56-34.53L514.56-34.53Q516.09-35.31 517.88-35.80L517.88-35.80L517.88-35.80Q519.66-36.28 521.44-36.55L521.44-36.55L521.44-36.55Q523.22-36.81 524.89-36.91L524.89-36.91L524.89-36.91Q526.56-37 527.94-37L527.94-37L527.94-37Q531.94-37 534.83-36.50L534.83-36.50L534.83-36.50Q537.72-36 539.73-35.03L539.73-35.03L539.73-35.03Q541.75-34.06 542.97-32.63L542.97-32.63L542.97-32.63Q544.19-31.19 544.86-29.30L544.86-29.30L544.86-29.30Q545.53-27.41 545.75-25.08L545.75-25.08L545.75-25.08Q545.97-22.75 545.97-20L545.97-20L545.94 0ZM574.97 0.69L574.97 0.69L574.97 0.69Q568.97 0.69 564.78-0.19L564.78-0.19L564.78-0.19Q560.59-1.06 557.97-3.19L557.97-3.19L557.97-3.19Q555.34-5.31 554.16-8.91L554.16-8.91L554.16-8.91Q552.97-12.50 552.97-17.94L552.97-17.94L552.97-17.94Q552.97-23.56 554.16-27.25L554.16-27.25L554.16-27.25Q555.34-30.94 557.97-33.09L557.97-33.09L557.97-33.09Q560.59-35.25 564.78-36.13L564.78-36.13L564.78-36.13Q568.97-37 574.97-37L574.97-37L574.97-37Q579.22-37 582.09-36.56L582.09-36.56L582.09-36.56Q584.97-36.13 586.80-35.47L586.80-35.47L586.80-35.47Q588.63-34.81 589.58-34.05L589.58-34.05L589.58-34.05Q590.53-33.28 590.97-32.63L590.97-32.63L590.97-48L596.97-48L596.97 0L590.97 0L590.97-5.34L590.97-5.34Q590.97-5.34 589.47-3.56L589.47-3.56L589.47-3.56Q588.16-2.28 586.56-1.50L586.56-1.50L586.56-1.50Q584.97-0.72 582.09-0.02L582.09-0.02L582.09-0.02Q579.22 0.69 574.97 0.69ZM574.97-4L574.97-4L574.97-4Q577.97-4 580.31-4.14L580.31-4.14L580.31-4.14Q582.66-4.28 584.44-4.75L584.44-4.75L584.44-4.75Q586.22-5.22 587.45-6.14L587.45-6.14L587.45-6.14Q588.69-7.06 589.47-8.59L589.47-8.59L589.47-8.59Q590.25-10.13 590.61-12.39L590.61-12.39L590.61-12.39Q590.97-14.66 590.97-17.84L590.97-17.84L590.97-17.84Q590.97-21.16 590.61-23.48L590.61-23.48L590.61-23.48Q590.25-25.81 589.47-27.39L589.47-27.39L589.47-27.39Q588.69-28.97 587.45-29.88L587.45-29.88L587.45-29.88Q586.22-30.78 584.44-31.27L584.44-31.27L584.44-31.27Q582.66-31.75 580.31-31.88L580.31-31.88L580.31-31.88Q577.97-32 574.97-32L574.97-32L574.97-32Q571.47-32 568.92-31.78L568.92-31.78L568.92-31.78Q566.38-31.56 564.59-31L564.59-31L564.59-31Q562.81-30.44 561.70-29.44L561.70-29.44L561.70-29.44Q560.59-28.44 559.98-26.88L559.98-26.88L559.98-26.88Q559.38-25.31 559.17-23.11L559.17-23.11L559.17-23.11Q558.97-20.91 558.97-17.94L558.97-17.94L558.97-17.94Q558.97-15 559.17-12.83L559.17-12.83L559.17-12.83Q559.38-10.66 559.98-9.11L559.98-9.11L559.98-9.11Q560.59-7.56 561.70-6.56L561.70-6.56L561.70-6.56Q562.81-5.56 564.59-5L564.59-5L564.59-5Q566.38-4.44 568.92-4.22L568.92-4.22L568.92-4.22Q571.47-4 574.97-4ZM673.97 0L667.97-11L629.97-11L623.97 0L616.97 0L644.97-48L652.97-48L680.97 0L673.97 0ZM632.97-16L664.97-16L648.97-44L632.97-16ZM688.97 0L688.97-48L694.97-48L694.97 0L688.97 0ZM742.97-27L751.22-27L751.22-27Q756.16-27 759.69-26.59L759.69-26.59L759.69-26.59Q763.22-26.19 765.64-25.39L765.64-25.39L765.64-25.39Q768.06-24.59 769.50-23.41L769.50-23.41L769.50-23.41Q770.94-22.22 771.72-20.70L771.72-20.70L771.72-20.70Q772.50-19.19 772.73-17.31L772.73-17.31L772.73-17.31Q772.97-15.44 772.97-13.25L772.97-13.25L772.97-13.25Q772.97-11.06 772.58-9.14L772.58-9.14L772.58-9.14Q772.19-7.22 771.19-5.63L771.19-5.63L771.19-5.63Q770.19-4.03 768.47-2.78L768.47-2.78L768.47-2.78Q766.75-1.53 764.09-0.66L764.09-0.66L764.09-0.66Q761.44 0.22 757.70 0.67L757.70 0.67L757.70 0.67Q753.97 1.13 748.97 1.13L748.97 1.13L740.97 1.13L740.97 1.13Q736.47 1.13 733.09 0.78L733.09 0.78L733.09 0.78Q729.72 0.44 727.28-0.27L727.28-0.27L727.28-0.27Q724.84-0.97 723.25-2.05L723.25-2.05L723.25-2.05Q721.66-3.13 720.70-4.58L720.70-4.58L720.70-4.58Q719.75-6.03 719.38-7.89L719.38-7.89L719.38-7.89Q719-9.75 719-12L719-12L725-12L725-12Q725-9.19 725.81-7.59L725.81-7.59L725.81-7.59Q726.63-6 728.50-5.20L728.50-5.20L728.50-5.20Q730.38-4.41 733.42-4.20L733.42-4.20L733.42-4.20Q736.47-4 740.97-4L740.97-4L748.97-4L748.97-4Q754.22-4 757.69-4.50L757.69-4.50L757.69-4.50Q761.16-5 763.22-6.09L763.22-6.09L763.22-6.09Q765.28-7.19 766.13-8.95L766.13-8.95L766.13-8.95Q766.97-10.72 766.97-13.25L766.97-13.25L766.97-13.25Q766.97-15.78 766.39-17.47L766.39-17.47L766.39-17.47Q765.81-19.16 764.11-20.16L764.11-20.16L764.11-20.16Q762.41-21.16 759.31-21.58L759.31-21.58L759.31-21.58Q756.22-22 751.22-22L751.22-22L742.97-22L742.97-22Q737.47-22 733.55-22.41L733.55-22.41L733.55-22.41Q729.63-22.81 726.97-23.58L726.97-23.58L726.97-23.58Q724.31-24.34 722.72-25.48L722.72-25.48L722.72-25.48Q721.13-26.63 720.30-28.09L720.30-28.09L720.30-28.09Q719.47-29.56 719.22-31.36L719.22-31.36L719.22-31.36Q718.97-33.16 718.97-35.25L718.97-35.25L718.97-35.25Q718.97-37.44 719.36-39.31L719.36-39.31L719.36-39.31Q719.75-41.19 720.81-42.70L720.81-42.70L720.81-42.70Q721.88-44.22 723.72-45.41L723.72-45.41L723.72-45.41Q725.56-46.59 728.45-47.39L728.45-47.39L728.45-47.39Q731.34-48.19 735.41-48.59L735.41-48.59L735.41-48.59Q739.47-49 744.97-49L744.97-49L750.97-49L750.97-49Q755.47-49 758.84-48.67L758.84-48.67L758.84-48.67Q762.22-48.34 764.66-47.64L764.66-47.64L764.66-47.64Q767.09-46.94 768.70-45.89L768.70-45.89L768.70-45.89Q770.31-44.84 771.27-43.39L771.27-43.39L771.27-43.39Q772.22-41.94 772.59-40.09L772.59-40.09L772.59-40.09Q772.97-38.25 772.97-36L772.97-36L766.97-36L766.97-36Q766.97-38.81 766.16-40.41L766.16-40.41L766.16-40.41Q765.34-42 763.47-42.80L763.47-42.80L763.47-42.80Q761.59-43.59 758.53-43.80L758.53-43.80L758.53-43.80Q755.47-44 750.97-44L750.97-44L744.97-44L744.97-44Q738.97-44 735.09-43.58L735.09-43.58L735.09-43.58Q731.22-43.16 728.97-42.16L728.97-42.16L728.97-42.16Q726.72-41.16 725.84-39.47L725.84-39.47L725.84-39.47Q724.97-37.78 724.97-35.25L724.97-35.25L724.97-35.25Q724.97-33.69 725.19-32.47L725.19-32.47L725.19-32.47Q725.41-31.25 726.08-30.33L726.08-30.33L726.08-30.33Q726.75-29.41 727.97-28.78L727.97-28.78L727.97-28.78Q729.19-28.16 731.19-27.75L731.19-27.75L731.19-27.75Q733.19-27.34 736.08-27.17L736.08-27.17L736.08-27.17Q738.97-27 742.97-27L742.97-27ZM779.97-18.25L779.97-18.25L779.97-18.25Q779.97-23.78 781.16-27.41L781.16-27.41L781.16-27.41Q782.34-31.03 784.97-33.16L784.97-33.16L784.97-33.16Q787.59-35.28 791.78-36.14L791.78-36.14L791.78-36.14Q795.97-37 801.97-37L801.97-37L801.97-37Q807.97-37 812.16-36.14L812.16-36.14L812.16-36.14Q816.34-35.28 818.97-33.16L818.97-33.16L818.97-33.16Q821.59-31.03 822.78-27.41L822.78-27.41L822.78-27.41Q823.97-23.78 823.97-18.25L823.97-18.25L823.97-18.25Q823.97-12.72 822.78-9.06L822.78-9.06L822.78-9.06Q821.59-5.41 818.97-3.25L818.97-3.25L818.97-3.25Q816.34-1.09 812.16-0.20L812.16-0.20L812.16-0.20Q807.97 0.69 801.97 0.69L801.97 0.69L801.97 0.69Q795.97 0.69 791.78-0.20L791.78-0.20L791.78-0.20Q787.59-1.09 784.97-3.25L784.97-3.25L784.97-3.25Q782.34-5.41 781.16-9.06L781.16-9.06L781.16-9.06Q779.97-12.72 779.97-18.25ZM785.97-18.25L785.97-18.25L785.97-18.25Q785.97-15.25 786.19-13.03L786.19-13.03L786.19-13.03Q786.41-10.81 787.02-9.22L787.02-9.22L787.02-9.22Q787.63-7.63 788.72-6.63L788.72-6.63L788.72-6.63Q789.81-5.63 791.59-5.03L791.59-5.03L791.59-5.03Q793.38-4.44 795.92-4.22L795.92-4.22L795.92-4.22Q798.47-4 801.97-4L801.97-4L801.97-4Q804.97-4 807.33-4.14L807.33-4.14L807.33-4.14Q809.69-4.28 811.45-4.78L811.45-4.78L811.45-4.78Q813.22-5.28 814.47-6.20L814.47-6.20L814.47-6.20Q815.72-7.13 816.48-8.72L816.48-8.72L816.48-8.72Q817.25-10.31 817.61-12.64L817.61-12.64L817.61-12.64Q817.97-14.97 817.97-18.25L817.97-18.25L817.97-18.25Q817.97-21.47 817.61-23.73L817.61-23.73L817.61-23.73Q817.25-26 816.48-27.53L816.48-27.53L816.48-27.53Q815.72-29.06 814.47-29.95L814.47-29.95L814.47-29.95Q813.22-30.84 811.45-31.30L811.45-31.30L811.45-31.30Q809.69-31.75 807.33-31.88L807.33-31.88L807.33-31.88Q804.97-32 801.97-32L801.97-32L801.97-32Q798.97-32 796.61-31.88L796.61-31.88L796.61-31.88Q794.25-31.75 792.48-31.30L792.48-31.30L792.48-31.30Q790.72-30.84 789.47-29.95L789.47-29.95L789.47-29.95Q788.22-29.06 787.45-27.53L787.45-27.53L787.45-27.53Q786.69-26 786.33-23.73L786.33-23.73L786.33-23.73Q785.97-21.47 785.97-18.25ZM832.97 0L832.97-48L838.97-48L838.97 0L832.97 0ZM849-36L855-36L855-16L855-16Q855-12.66 855.50-10.36L855.50-10.36L855.50-10.36Q856-8.06 857.50-6.66L857.50-6.66L857.50-6.66Q859-5.25 861.75-4.63L861.75-4.63L861.75-4.63Q864.50-4 869-4L869-4L869-4Q873.88-4 876.98-4.72L876.98-4.72L876.98-4.72Q880.09-5.44 881.88-6.75L881.88-6.75L881.88-6.75Q883.66-8.06 884.33-9.91L884.33-9.91L884.33-9.91Q885-11.75 885-14L885-14L885-36L891-36L891 0L885 0L885-6L885-6Q884.56-5.03 883.53-3.86L883.53-3.86L883.53-3.86Q882.50-2.69 880.44-1.69L880.44-1.69L880.44-1.69Q878.38-0.69 875.11 0L875.11 0L875.11 0Q871.84 0.69 867 0.69L867 0.69L867 0.69Q862.97 0.69 860.08 0.20L860.08 0.20L860.08 0.20Q857.19-0.28 855.17-1.23L855.17-1.23L855.17-1.23Q853.16-2.19 851.94-3.59L851.94-3.59L851.94-3.59Q850.72-5 850.06-6.86L850.06-6.86L850.06-6.86Q849.41-8.72 849.19-11L849.19-11L849.19-11Q848.97-13.28 848.97-16L848.97-16L849-36ZM929-16L934-16L934-16Q934-11.41 933.25-8.33L933.25-8.33L933.25-8.33Q932.50-5.25 930.73-3.41L930.73-3.41L930.73-3.41Q928.97-1.56 926.09-0.78L926.09-0.78L926.09-0.78Q923.22 0 919 0L919 0L919 0Q914.91 0 912.13-0.63L912.13-0.63L912.13-0.63Q909.34-1.25 907.63-2.75L907.63-2.75L907.63-2.75Q905.91-4.25 905.16-6.75L905.16-6.75L905.16-6.75Q904.41-9.25 904.41-13L904.41-13L904.41-31.06L897-31.06L897-36L904.41-36L904.41-45.84L910.41-45.84L910.41-36L933-36L933-31.06L910.41-31.06L910.41-13L910.41-13Q910.41-10 910.86-8.38L910.86-8.38L910.86-8.38Q911.31-6.75 912.31-6L912.31-6L912.31-6Q913.31-5.25 914.95-5.13L914.95-5.13L914.95-5.13Q916.59-5 918.97-5L918.97-5L918.97-5Q920.84-5 922.33-5.06L922.33-5.06L922.33-5.06Q923.81-5.13 924.92-5.45L924.92-5.45L924.92-5.45Q926.03-5.78 926.81-6.45L926.81-6.45L926.81-6.45Q927.59-7.13 928.08-8.34L928.08-8.34L928.08-8.34Q928.56-9.56 928.78-11.42L928.78-11.42L928.78-11.42Q929-13.28 929-16L929-16ZM944 0L944-36L950-36L950 0L944 0ZM950-48L950-42L944-42L944-48L950-48ZM959-18.25L959-18.25L959-18.25Q959-23.78 960.19-27.41L960.19-27.41L960.19-27.41Q961.38-31.03 964-33.16L964-33.16L964-33.16Q966.63-35.28 970.81-36.14L970.81-36.14L970.81-36.14Q975-37 981-37L981-37L981-37Q987-37 991.19-36.14L991.19-36.14L991.19-36.14Q995.38-35.28 998-33.16L998-33.16L998-33.16Q1000.63-31.03 1001.81-27.41L1001.81-27.41L1001.81-27.41Q1003-23.78 1003-18.25L1003-18.25L1003-18.25Q1003-12.72 1001.81-9.06L1001.81-9.06L1001.81-9.06Q1000.63-5.41 998-3.25L998-3.25L998-3.25Q995.38-1.09 991.19-0.20L991.19-0.20L991.19-0.20Q987 0.69 981 0.69L981 0.69L981 0.69Q975 0.69 970.81-0.20L970.81-0.20L970.81-0.20Q966.63-1.09 964-3.25L964-3.25L964-3.25Q961.38-5.41 960.19-9.06L960.19-9.06L960.19-9.06Q959-12.72 959-18.25ZM965-18.25L965-18.25L965-18.25Q965-15.25 965.22-13.03L965.22-13.03L965.22-13.03Q965.44-10.81 966.05-9.22L966.05-9.22L966.05-9.22Q966.66-7.63 967.75-6.63L967.75-6.63L967.75-6.63Q968.84-5.63 970.63-5.03L970.63-5.03L970.63-5.03Q972.41-4.44 974.95-4.22L974.95-4.22L974.95-4.22Q977.50-4 981-4L981-4L981-4Q984-4 986.36-4.14L986.36-4.14L986.36-4.14Q988.72-4.28 990.48-4.78L990.48-4.78L990.48-4.78Q992.25-5.28 993.50-6.20L993.50-6.20L993.50-6.20Q994.75-7.13 995.52-8.72L995.52-8.72L995.52-8.72Q996.28-10.31 996.64-12.64L996.64-12.64L996.64-12.64Q997-14.97 997-18.25L997-18.25L997-18.25Q997-21.47 996.64-23.73L996.64-23.73L996.64-23.73Q996.28-26 995.52-27.53L995.52-27.53L995.52-27.53Q994.75-29.06 993.50-29.95L993.50-29.95L993.50-29.95Q992.25-30.84 990.48-31.30L990.48-31.30L990.48-31.30Q988.72-31.75 986.36-31.88L986.36-31.88L986.36-31.88Q984-32 981-32L981-32L981-32Q978-32 975.64-31.88L975.64-31.88L975.64-31.88Q973.28-31.75 971.52-31.30L971.52-31.30L971.52-31.30Q969.75-30.84 968.50-29.95L968.50-29.95L968.50-29.95Q967.25-29.06 966.48-27.53L966.48-27.53L966.48-27.53Q965.72-26 965.36-23.73L965.36-23.73L965.36-23.73Q965-21.47 965-18.25ZM1052 0L1046 0L1046-20L1046-20Q1046-23.34 1045.50-25.64L1045.50-25.64L1045.50-25.64Q1045-27.94 1043.50-29.34L1043.50-29.34L1043.50-29.34Q1042-30.75 1039.25-31.38L1039.25-31.38L1039.25-31.38Q1036.50-32 1032-32L1032-32L1032-32Q1027.13-32 1024.02-31.28L1024.02-31.28L1024.02-31.28Q1020.91-30.56 1019.13-29.25L1019.13-29.25L1019.13-29.25Q1017.34-27.94 1016.67-26.09L1016.67-26.09L1016.67-26.09Q1016-24.25 1016-22L1016-22L1016 0L1010 0L1010-36L1016-36L1016-30L1016-30Q1016.66-31.53 1017.88-32.64L1017.88-32.64L1017.88-32.64Q1019.09-33.75 1020.63-34.53L1020.63-34.53L1020.63-34.53Q1022.16-35.31 1023.94-35.80L1023.94-35.80L1023.94-35.80Q1025.72-36.28 1027.50-36.55L1027.50-36.55L1027.50-36.55Q1029.28-36.81 1030.95-36.91L1030.95-36.91L1030.95-36.91Q1032.63-37 1034-37L1034-37L1034-37Q1038-37 1040.89-36.50L1040.89-36.50L1040.89-36.50Q1043.78-36 1045.80-35.03L1045.80-35.03L1045.80-35.03Q1047.81-34.06 1049.03-32.63L1049.03-32.63L1049.03-32.63Q1050.25-31.19 1050.92-29.30L1050.92-29.30L1050.92-29.30Q1051.59-27.41 1051.81-25.08L1051.81-25.08L1051.81-25.08Q1052.03-22.75 1052.03-20L1052.03-20L1052 0ZM1081.03-16.41L1081.03-16.41L1081.03-16.41Q1084.53-16.41 1087-16.30L1087-16.30L1087-16.30Q1089.47-16.19 1091.14-15.92L1091.14-15.92L1091.14-15.92Q1092.81-15.66 1093.78-15.25L1093.78-15.25L1093.78-15.25Q1094.75-14.84 1095.25-14.05L1095.25-14.05L1095.25-14.05Q1095.75-13.25 1095.89-12.45L1095.89-12.45L1095.89-12.45Q1096.03-11.66 1096.03-10.63L1096.03-10.63L1096.03-10.63Q1096.03-9.50 1095.89-8.58L1095.89-8.58L1095.89-8.58Q1095.75-7.66 1095.22-6.91L1095.22-6.91L1095.22-6.91Q1094.69-6.16 1093.66-5.63L1093.66-5.63L1093.66-5.63Q1092.63-5.09 1090.84-4.72L1090.84-4.72L1090.84-4.72Q1089.06-4.34 1086.42-4.17L1086.42-4.17L1086.42-4.17Q1083.78-4 1080.03-4L1080.03-4L1080.03-4Q1075.91-4 1073.20-4.23L1073.20-4.23L1073.20-4.23Q1070.50-4.47 1068.91-5.13L1068.91-5.13L1068.91-5.13Q1067.31-5.78 1066.67-6.95L1066.67-6.95L1066.67-6.95Q1066.03-8.13 1066.03-10L1066.03-10L1060.03-10L1060.03-10Q1060.03-7.16 1061.05-5.19L1061.05-5.19L1061.05-5.19Q1062.06-3.22 1064.41-1.98L1064.41-1.98L1064.41-1.98Q1066.75-0.75 1070.58-0.19L1070.58-0.19L1070.58-0.19Q1074.41 0.38 1080.03 0.38L1080.03 0.38L1080.03 0.38Q1084.53 0.38 1087.92 0.11L1087.92 0.11L1087.92 0.11Q1091.31-0.16 1093.75-0.70L1093.75-0.70L1093.75-0.70Q1096.19-1.25 1097.80-2.14L1097.80-2.14L1097.80-2.14Q1099.41-3.03 1100.34-4.27L1100.34-4.27L1100.34-4.27Q1101.28-5.50 1101.66-7.11L1101.66-7.11L1101.66-7.11Q1102.03-8.72 1102.03-10.75L1102.03-10.75L1102.03-10.75Q1102.03-12.78 1101.66-14.33L1101.66-14.33L1101.66-14.33Q1101.28-15.88 1100.36-17.02L1100.36-17.02L1100.36-17.02Q1099.44-18.16 1097.91-19.13L1097.91-19.13L1097.91-19.13Q1096.38-20.09 1094.03-20.56L1094.03-20.56L1094.03-20.56Q1091.69-21.03 1088.48-21.22L1088.48-21.22L1088.48-21.22Q1085.28-21.41 1081.03-21.41L1081.03-21.41L1081.03-21.41Q1077.53-21.41 1075.06-21.42L1075.06-21.42L1075.06-21.42Q1072.59-21.44 1070.92-21.61L1070.92-21.61L1070.92-21.61Q1069.25-21.78 1068.28-22.13L1068.28-22.13L1068.28-22.13Q1067.31-22.47 1066.81-23.13L1066.81-23.13L1066.81-23.13Q1066.31-23.78 1066.17-24.80L1066.17-24.80L1066.17-24.80Q1066.03-25.81 1066.03-26.88L1066.03-26.88L1066.03-26.88Q1066.03-28.69 1066.84-29.72L1066.84-29.72L1066.84-29.72Q1067.66-30.75 1069.53-31.25L1069.53-31.25L1069.53-31.25Q1071.41-31.75 1074.47-31.88L1074.47-31.88L1074.47-31.88Q1077.53-32 1082.03-32L1082.03-32L1082.03-32Q1086.16-32 1088.86-31.77L1088.86-31.77L1088.86-31.77Q1091.56-31.53 1093.16-30.92L1093.16-30.92L1093.16-30.92Q1094.75-30.31 1095.39-29.25L1095.39-29.25L1095.39-29.25Q1096.03-28.19 1096.03-26.50L1096.03-26.50L1102.03-26.50L1102.03-26.50Q1102.03-29.22 1101.13-31.19L1101.13-31.19L1101.13-31.19Q1100.22-33.16 1097.95-34.45L1097.95-34.45L1097.95-34.45Q1095.69-35.75 1091.83-36.38L1091.83-36.38L1091.83-36.38Q1087.97-37 1082.03-37L1082.03-37L1082.03-37Q1076.03-37 1071.84-36.47L1071.84-36.47L1071.84-36.47Q1067.66-35.94 1065.03-34.73L1065.03-34.73L1065.03-34.73Q1062.41-33.53 1061.22-31.61L1061.22-31.61L1061.22-31.61Q1060.03-29.69 1060.03-26.88L1060.03-26.88L1060.03-26.88Q1060.03-24.81 1060.41-23.05L1060.41-23.05L1060.41-23.05Q1060.78-21.28 1061.69-20.08L1061.69-20.08L1061.69-20.08Q1062.59-18.88 1064.14-18.16L1064.14-18.16L1064.14-18.16Q1065.69-17.44 1068.02-17.05L1068.02-17.05L1068.02-17.05Q1070.34-16.66 1073.56-16.53L1073.56-16.53L1073.56-16.53Q1076.78-16.41 1081.03-16.41Z" fill="#ccc"></path></g></g><style>text {
  font-size: 64px;
  font-family: Arial Black;
  dominant-baseline: central;
  text-anchor: middle;
}</style></svg>